<?xml version="1.0" encoding="utf-8"?>
<!-- Svg Vector Icons : http://www.onlinewebfonts.com/icon -->
<!DOCTYPE svg PUBLIC "-//W3C//DTD SVG 1.1//EN" "http://www.w3.org/Graphics/SVG/1.1/DTD/svg11.dtd">
<svg version="1.1" xmlns="http://www.w3.org/2000/svg" xmlns:xlink="http://www.w3.org/1999/xlink" x="0px" y="0px" viewBox="0 0 1000 1000" enable-background="new 0 0 1000 1000" xml:space="preserve">
<metadata> Svg Vector Icons : http://www.onlinewebfonts.com/icon </metadata>
<g><g><path d="M816,836c-0.5-59.5-1.2-342.7,26.5-449.3L737,299.9v515.6c-6.1-1.3-12.2-2.5-18.6-3.6v-512l-121,80.6c15.7,70.1,22.9,314.7,25.4,419c-6.8-0.5-13.8-1-20.8-1.5c0.2-30.3,0.7-60.7,1.8-91.2c-1.4-43.2-3.2-91.7-5.6-138.2l-20.4-6.4v-47.9h17.3c-3.6-56.3-8.1-104.7-13.7-129.6l-2.9-13l28.4-19l-22-7l7.8-42.3l29.6,9.3l-3.8,32.2l15-10c12.7-107.4,24.2-179.3,24.2-179.3L513.7,40.9v753.5c-4.8,0-9.3,0-13.9,0V30.1l-161.3,124c0,0,5.6,36.8,13.2,97.2l36.9,27.4v-34.3l33.4-12.6v40l-24.7,13.4l36.3,27l-3.4,12.8c-17.6,65.6-31.6,207.7-40.8,327.3c2.8,48.2,4.5,97.2,5.5,145.7c-9.4,0.7-18.5,1.5-27.4,2.4C374,691,392.2,420.5,419.1,320L292,225.4v585.4c-6.3,1.1-12.6,2.2-18.6,3.5V225.4l-125.6,93c32.1,110.4,42.9,451.1,44.7,517.4C38.2,887.8,10,969.9,10,969.9h980C990,969.9,973.5,887.9,816,836z M601.2,157.4l36.4,17.2l-5.1,44.6L597.1,206L601.2,157.4z M597.1,226.2l33.4,13.7l-7.1,50.1l-30.6-12.1L597.1,226.2z M388.6,219.2l-10.1-42.5l34.4-18L422,206L388.6,219.2z M367.4,320.4l31.6,17l-6.6,31.6l-27.3-8.1L367.4,320.4z M362.8,378.1l26.3,6.6l-3,34.9l-23.3-9.2L362.8,378.1L362.8,378.1z M359.8,429l23.3,9.4l-2.6,39.4l-23.3-11.2L359.8,429z M354.8,486l20.6,3.8l-2.5,34.8l-18.1-5.8V486z M350.6,539h22.3v39.1l-22.3-1.7V539z M340,736.4l-24.3-6.1v-40.5l24.3,10.1V736.4z M340,680.6l-24.3-6.1V634l24.3,10.1V680.6z M340,624.7l-24.3-6.1v-40.5l24.3,10.2V624.7z M340,568.9l-24.3-6.1v-40.5l24.3,10.1V568.9z M340,513.1l-24.3-6.1v-40.5l24.3,10.1V513.1z M340,457.3l-24.3-6.1v-40.5l24.3,10.1V457.3z M340,401.5l-24.3-6.1v-40.5l24.3,10.1V401.5z M340,345.7l-24.3-6.1v-40.5l24.3,10.1V345.7z M362.8,736.4h-16v-34.9h16V736.4z M362.8,680.6h-16v-34.9h16V680.6z M362.8,624.7h-16v-34.8h16V624.7z M412.9,452l20.5-11.7l3.8,49.7l-24.3,3.5L412.9,452L412.9,452z M442.5,701.5H425v-46.3h17.5V701.5z M442.5,632.4l-20.5,3.1v-50.9l20.5-3.8V632.4z M422,559.2V517l15.2-4.6l5.3,45.3L422,559.2z M479.7,694.9l-20.2,9.6v-51.7l20.2-11.6V694.9z M479.7,621l-20.2,11.4v-51.6l20.2-13.4V621z M479.7,547.1l-20.2,10.6v-51.6l20.2-12.6V547.1z M479.7,473.2l-24.8,11.1v-51.6l24.8-13.2V473.2z M479.7,399.4l-27.3,11.1v-51.6l27.3-13.1V399.4z M479.7,325.4l-27.3,9.6v-51.6l27.3-11.6V325.4z M479.7,251.6l-30.4,14.2v-51.6l30.4-16.2V251.6z M479.7,177.6l-34.4,13.2v-51.6l34.4-15.2V177.6z M536.6,124l35.7,20.2v49l-35.7-18.6V124z M554.1,704.6l-17.5-6.1v-49.4l17.5,6.1V704.6z M554.1,632.4l-17.5-6.4v-62.8l17.5,11.1V632.4z M559.5,557.8l-22.8-16.2V490l22.8,17.1V557.8z M559.5,484.4l-22.8-16.9v-50.6l22.8,18.6V484.4z M562.7,407.3l-26.1-13.1v-50.6l26.1,14.7V407.3z M565.3,337.3L536.6,321v-50.6l28.6,17.9V337.3z M565.3,260.9l-28.6-13.1v-50.6l28.6,14.7V260.9z M589.6,704.6l-17.5-6.1v-49.4l17.5,6.1V704.6z M592.9,635.5l-18.5-3.1V583l18.5,4V635.5z M792.5,386.2l26.6,12.7v30l-26.6-15.2V386.2z M787.2,573.5l18,6.4v30l-18-8.8V573.5L787.2,573.5z M787.2,622l18,6.4v30l-18-8.8V622L787.2,622z M787.2,670.5l18,6.4v30l-18-8.8V670.5L787.2,670.5z M772,769.7l-21.2-8.3v-33.8l21.2,10.3V769.7z M772,724.4l-21.2-8.4v-33.7l21.2,10.3V724.4z M772,679.1l-21.2-8.3V637l21.2,10.3V679.1z M772,633.8l-21.2-8.4v-33.7L772,602V633.8z M772,588.5l-21.2-8.4v-33.8l21.2,10.3V588.5z M772,543.2l-21.2-8.3v-33.8l21.2,10.3V543.2z M772,497.9l-21.2-8.4v-33.8l21.2,10.3V497.9z M772,452.6l-21.2-8.4v-33.8l21.2,10.3V452.6z M772,407.3l-21.2-8.3v-33.8l21.2,10.3V407.3z M807.7,752.1l-20.5-5.7v-27.5l20.5,3.2V752.1z M807.7,564.3l-20.5-11.8V525l20.5,9.3V564.3z M813.8,519.3l-26.6-11.6v-31.1l26.6,12.7V519.3z M813.8,474l-26.6-15.2v-27.5l26.6,12.7V474z"/></g><g></g><g></g><g></g><g></g><g></g><g></g><g></g><g></g><g></g><g></g><g></g><g></g><g></g><g></g><g></g></g>
</svg>