<?xml version="1.0" encoding="UTF-8" standalone="no"?>
<!-- Generator: Adobe Illustrator 19.0.0, SVG Export Plug-In . SVG Version: 6.00 Build 0)  -->

<svg
   version="1.1"
   id="Layer_1"
   x="0px"
   y="0px"
   viewBox="0 0 504 504"
   style="enable-background:new 0 0 504 504;"
   xml:space="preserve"
   sodipodi:docname="poi.svg"
   inkscape:version="1.1.1 (3bf5ae0d25, 2021-09-20)"
   xmlns:inkscape="http://www.inkscape.org/namespaces/inkscape"
   xmlns:sodipodi="http://sodipodi.sourceforge.net/DTD/sodipodi-0.dtd"
   xmlns="http://www.w3.org/2000/svg"
   xmlns:svg="http://www.w3.org/2000/svg"><defs
   id="defs101" /><sodipodi:namedview
   id="namedview99"
   pagecolor="#ffffff"
   bordercolor="#666666"
   borderopacity="1.0"
   inkscape:pageshadow="2"
   inkscape:pageopacity="0.0"
   inkscape:pagecheckerboard="0"
   showgrid="false"
   inkscape:zoom="1.6031746"
   inkscape:cx="129.11881"
   inkscape:cy="252"
   inkscape:window-width="1827"
   inkscape:window-height="1046"
   inkscape:window-x="-11"
   inkscape:window-y="1609"
   inkscape:window-maximized="1"
   inkscape:current-layer="Layer_1" />
<circle
   style="fill:#ff0000"
   cx="252"
   cy="252"
   r="252"
   id="circle56" />
<path
   style="fill:#324A5E;"
   d="M323,399.3l-7.7-51.6c-0.5-4.7-2.5-9.2-5.8-12.6l-44.4-47.4v-83c0-12-9.7-21.8-21.8-21.8  c-12,0-21.8,9.7-21.8,21.8v84.6l-74.9,102c-6.2,10.3-2.9,23.7,7.4,29.9c3.5,2.1,7.4,3.1,11.2,3.1c7.4,0,14.6-3.8,18.7-10.5  l61.3-83.6l27.4,29.3l6.9,44.4c1.2,11.2,10.6,19.5,21.6,19.5c0.8,0,1.5,0,2.3-0.1C315.6,422,324.3,411.2,323,399.3z"
   id="path58" />
<path
   style="fill:#54C0EB;"
   d="M195.6,182.8H152c-4.6,0-8.3,3.7-8.3,8.3v81.6c0,4.6,3.7,8.3,8.3,8.3h43.7c4.6,0,8.3-3.7,8.3-8.3  v-81.6C204,186.6,200.2,182.8,195.6,182.8z"
   id="path60" />
<path
   style="fill:#334A5E;"
   d="M344,260.1c-3,0-6.1-0.8-8.8-2.6L289,227.8c-7.6-4.9-9.8-15-4.9-22.6s15-9.8,22.6-4.9l46.1,29.8  c7.6,4.9,9.8,15,4.9,22.6C354.6,257.5,349.4,260.1,344,260.1z"
   id="path62" />
<path
   style="fill:#324A5E;"
   d="M197.8,110.5c-0.4,1.7-0.7,3.4-0.9,5.1c-3.2,28.1,19.4,51.8,47.2,50.2c16.7-0.9,31.2-11.8,38.3-26.9  c4.7-10.2,4.9-19.7,2.8-28.4C285.2,110.5,197.8,110.5,197.8,110.5z"
   id="path64" />
<path
   style="fill:#FF7058;"
   d="M309.1,101.8c-0.6-3.6-3.9-6.1-7.6-6.1h-2.2c-6.5,0-12.9-1.4-18.8-3.9c-6.8-15.5-21.8-26.3-39.4-26.3  c-23.9,0-43.2,20-43.2,44.6c0,0.1,0,0.2,0,0.4c0,0,0,0,0,0.1l0,0h86.4h1c0-0.1,0-0.1,0-0.2H302C306.3,110.3,309.8,106.3,309.1,101.8  z"
   id="path66" />
<g
   id="g68">
</g>
<g
   id="g70">
</g>
<g
   id="g72">
</g>
<g
   id="g74">
</g>
<g
   id="g76">
</g>
<g
   id="g78">
</g>
<g
   id="g80">
</g>
<g
   id="g82">
</g>
<g
   id="g84">
</g>
<g
   id="g86">
</g>
<g
   id="g88">
</g>
<g
   id="g90">
</g>
<g
   id="g92">
</g>
<g
   id="g94">
</g>
<g
   id="g96">
</g>
<path
   style="fill:#ff2a2a;stroke-width:0.623762"
   d="M 240.77228,503.35103 C 189.95404,501.12433 140.9637,483.38323 99.826014,452.3095 80.357791,437.60401 59.682306,416.10173 45.64787,395.96483 21.226344,360.92433 6.0103952,319.73429 1.4525388,276.32673 0.39204133,266.2269 0.39204133,237.7731 1.4525388,227.67327 6.0136862,184.23436 21.20871,143.10098 45.64787,108.03517 59.682306,87.898274 80.357791,66.395993 99.826014,51.690496 137.4105,23.300717 181.0172,6.2141734 227.83437,1.532597 239.20904,0.39516544 262.82026,0.23455798 273.5198,1.2218372 318.92607,5.41161 361.49837,21.09488 397.83001,47.016647 c 22.03454,15.721117 43.30218,36.984996 59.15037,59.139883 25.10654,35.09757 40.74809,76.78741 45.59168,121.51674 1.18557,10.94839 0.98497,40.07472 -0.35442,51.46039 -6.99259,59.4416 -32.26432,111.24095 -74.41187,152.52166 -25.74314,25.21369 -52.88495,42.60137 -86.91963,55.68274 -22.83143,8.77536 -51.32039,14.84872 -73.84724,15.74298 -4.49763,0.17854 -10.00202,0.41072 -12.23197,0.51596 -2.22995,0.10523 -8.54554,-0.006 -14.03465,-0.24597 z m -66.11881,-81.0519 c 2.05841,-0.99753 4.77046,-2.88194 6.02677,-4.18759 1.25631,-1.30565 16.29549,-21.4992 33.42041,-44.87455 l 31.13621,-42.50064 9.98292,10.68876 c 5.49061,5.87881 11.58734,12.42529 13.54829,14.54773 l 3.56537,3.85897 3.71154,23.81945 c 4.20257,26.9707 4.83634,29.11399 10.05131,33.99198 4.79292,4.48323 7.77579,5.57953 15.18094,5.57953 5.91074,0 6.44252,-0.11111 10.14758,-2.12023 6.66759,-3.61561 11.07681,-9.99246 11.79501,-17.05861 0.36697,-3.61057 -7.24882,-56.69502 -8.80836,-61.39707 -0.47532,-1.43308 -1.51978,-3.56916 -2.32101,-4.74685 -0.80123,-1.17767 -11.56174,-12.91418 -23.91223,-26.08112 l -22.45545,-23.93988 -0.31188,-44.30755 -0.31188,-44.30754 -2.05015,-4.16349 c -2.26995,-4.60986 -5.9132,-8.23752 -10.60203,-10.55668 -2.4848,-1.22903 -3.91102,-1.45622 -9.1795,-1.4623 -5.91726,-0.007 -6.43844,0.1017 -10.14758,2.11304 -4.678,2.53671 -7.8151,5.84618 -10.04039,10.59204 l -1.64372,3.50555 -0.31188,45.22277 -0.31188,45.22277 -37.37124,50.83664 c -20.55418,27.96015 -37.89685,52.0222 -38.53927,53.47123 -0.64241,1.44903 -1.33406,4.41266 -1.53699,6.58584 -1.0603,11.35446 6.9927,21.69735 18.50196,23.76304 3.45067,0.61934 9.09347,-0.30527 12.78713,-2.09524 z m 25.22391,-142.12208 c 1.16888,-0.62688 2.63814,-2.09614 3.26502,-3.26502 1.07199,-1.99885 1.13978,-4.65886 1.13978,-44.72679 0,-46.95863 0.0972,-45.74611 -3.86098,-48.15935 -1.9784,-1.2062 -3.09127,-1.25895 -26.60714,-1.26118 -27.09462,-0.002 -26.73099,-0.0522 -29.17258,3.98073 -1.1225,1.85408 -1.17613,3.92481 -1.17613,45.40446 0,42.97633 0.0144,43.48146 1.29186,45.22278 2.86123,3.90024 3.17221,3.94211 29.28222,3.94318 21.77539,6.3e-4 23.88634,-0.0922 25.83795,-1.13881 z m 151.30538,-21.5348 c 5.90901,-2.75169 9.15213,-7.98228 9.19661,-14.83256 0.0321,-4.94702 -1.47407,-8.53055 -4.98006,-11.84852 -2.57832,-2.44004 -48.55624,-32.24781 -51.72262,-33.53208 -2.56595,-1.04075 -7.9396,-1.05937 -11.32499,-0.0392 -1.47834,0.44547 -3.9109,1.88648 -5.40567,3.20223 -7.23473,6.36826 -7.70599,16.85063 -1.06247,23.63246 2.85704,2.91653 46.20953,31.25719 51.57189,33.7139 3.66507,1.67912 9.76831,1.54744 13.72731,-0.29618 z M 251.5831,164.97129 c 19.75065,-4.65613 35.10988,-23.91859 35.00855,-43.90523 -0.015,-2.94697 -0.25795,-6.55108 -0.54001,-8.00913 l -0.51284,-2.65099 h 9.5367 c 9.33526,0 9.57701,-0.0339 11.44458,-1.60538 2.67629,-2.25194 3.58491,-5.56958 2.34083,-8.54709 -1.42502,-3.410556 -4.16735,-4.810385 -9.45497,-4.826328 -7.92892,-0.02389 -18.68554,-2.897352 -19.38348,-5.17797 -0.88154,-2.880585 -6.10845,-9.878931 -10.19171,-13.645788 -8.10266,-7.474769 -17.50574,-11.108334 -28.74659,-11.108334 -12.18578,0 -21.21311,3.759166 -29.9583,12.475247 -8.77716,8.747949 -11.73488,15.622428 -13.78858,32.048043 -1.12823,9.02376 -1.22916,11.47019 -0.66294,16.069 1.35802,11.02963 5.08768,18.5812 13.2217,26.77043 6.01525,6.05609 12.34472,9.77315 20.10356,11.80608 5.6465,1.47947 15.98712,1.62676 21.5835,0.30744 z"
   id="path257" /><path
   style="fill:#ff2a2a;stroke-width:0.623762"
   d="m 240.77228,503.24508 c -13.80618,-1.40087 -25.77346,-2.59541 -27.13367,-2.70841 -0.85767,-0.0713 -2.02172,-0.32251 -2.58676,-0.55837 -0.56505,-0.23585 -1.40713,-0.36561 -1.87129,-0.28835 -0.46416,0.0773 -1.26497,-0.0284 -1.77957,-0.23487 -1.17487,-0.47131 -11.09883,-2.50185 -12.81863,-2.62282 -0.70346,-0.0495 -1.55357,-0.25964 -1.88912,-0.46702 -0.33555,-0.20739 -2.84762,-0.95647 -5.58236,-1.66463 -2.73475,-0.70815 -6.77253,-1.84094 -8.97286,-2.51731 -2.20033,-0.67637 -4.21138,-1.09949 -4.469,-0.94027 -0.25763,0.15922 -0.56255,0.0638 -0.67763,-0.21202 -0.11507,-0.27583 -2.45476,-1.30311 -5.19931,-2.28284 -13.43532,-4.79605 -30.69449,-12.88511 -42.89019,-20.10187 -20.3181,-12.02316 -35.460241,-23.9474 -52.24152,-41.13951 -17.082613,-17.50083 -28.106252,-32.01326 -39.26369,-51.68996 -2.139866,-3.77376 -4.213925,-7.06761 -4.60902,-7.31966 -0.395094,-0.25205 -0.52614,-0.46257 -0.291213,-0.46782 0.234927,-0.005 -0.990394,-3.027 -2.722934,-6.71499 -3.212261,-6.83782 -8.78154,-20.29492 -10.842166,-26.19802 -0.628725,-1.80112 -1.384944,-3.27476 -1.680489,-3.27476 -0.295545,0 -0.386975,-0.24331 -0.203178,-0.5407 0.183798,-0.2974 -0.769317,-4.20914 -2.118033,-8.69277 C 7.931453,312.64101 4.5942309,297.25588 2.7172219,284.74752 1.4523202,276.31824 1.3131915,273.07321 1.3131915,252 c 0,-21.12422 0.1367861,-24.29783 1.411454,-32.74752 1.9150161,-12.69452 4.6129314,-25.4313 7.5545895,-35.66498 1.347479,-4.68773 2.3209,-8.73196 2.16316,-8.98719 -0.157741,-0.25523 -0.05497,-0.5582 0.228386,-0.67327 0.283353,-0.11507 1.739915,-3.57754 3.236804,-7.69437 1.49689,-4.11683 3.957032,-10.29208 5.466981,-13.72277 1.509949,-3.43069 2.791893,-6.65866 2.848764,-7.17327 0.05687,-0.5146 0.277719,-1.07599 0.490772,-1.24752 0.761114,-0.6128 4.299455,-8.1091 3.832006,-8.11846 -0.262241,-0.005 -0.14228,-0.22224 0.266579,-0.48219 0.408859,-0.25995 2.059116,-2.85206 3.667237,-5.76025 4.310929,-7.79605 11.703177,-19.29441 17.000612,-26.44379 C 59.185594,90.186533 76.908011,71.208351 89.509901,60.41868 104.04039,47.977754 122.12881,36.099308 140.65842,26.830081 c 3.60222,-1.801974 6.64365,-3.525187 6.75872,-3.829362 0.11507,-0.304176 0.43404,-0.414095 0.70883,-0.244265 0.27479,0.16983 2.28584,-0.493088 4.46901,-1.473151 2.18315,-0.980063 7.19735,-3.001196 11.14264,-4.491408 3.9453,-1.490212 7.31362,-2.86057 7.48515,-3.04524 0.17154,-0.18467 0.59258,-0.338149 0.93565,-0.341064 1.24189,-0.01055 9.04458,-2.372521 9.04579,-2.738269 6.3e-4,-0.206383 0.91095,-0.439467 2.02282,-0.517962 1.11187,-0.0785 2.11771,-0.431111 2.2352,-0.7835898 0.1175,-0.3524781 0.45696,-0.4904855 0.75436,-0.3066827 0.29739,0.1838022 3.29087,-0.3551385 6.65217,-1.1976462 3.36129,-0.8425078 8.63768,-1.9995585 11.7253,-2.5712235 3.08762,-0.5716649 6.0349,-1.184453 6.5495,-1.3617513 0.51461,-0.1772984 1.77773,-0.3992787 2.80694,-0.4932897 1.0292,-0.094011 6.08168,-0.656824 11.22772,-1.2506957 9.84443,-1.1360838 38.76118,-1.56501779 48.65346,-0.7216968 5.39409,0.4598485 19.19451,2.467213 24.4737,3.5598675 1.79618,0.3717612 3.52653,0.5147722 3.84524,0.317802 0.3187,-0.1969702 0.67361,-0.1334886 0.78868,0.1410702 0.20587,0.4912152 11.49664,3.3090463 13.93199,3.4769968 0.68614,0.047319 1.38787,0.2407249 1.5594,0.4297916 0.55462,0.611299 9.48893,3.0786786 10.00126,2.7620386 0.27288,-0.168651 0.59892,0.0017 0.72452,0.37848 0.12561,0.376815 0.99146,0.72943 1.92413,0.783589 0.93266,0.05416 1.69595,0.339022 1.69618,0.633029 2.5e-4,0.294006 0.42149,0.372989 0.93609,0.175517 0.51461,-0.197473 0.93564,-0.147702 0.93564,0.1106 0,0.660113 5.62867,2.674495 6.30508,2.256454 0.30597,-0.189103 0.55631,-0.09768 0.55631,0.203153 0,0.300838 2.45607,1.495768 5.45792,2.655402 7.92863,3.062871 28.73159,13.62781 36.33416,18.452568 3.60223,2.286054 6.90037,4.166451 7.32921,4.17866 0.42883,0.01221 0.7797,0.232742 0.7797,0.490075 0,0.257332 2.31572,2.082111 5.14604,4.055063 10.64114,7.41769 20.49912,15.872228 32.63746,27.990989 12.93685,12.915992 22.12197,23.800071 30.58443,36.24159 2.66941,3.92457 5.03311,7.13557 5.25267,7.13557 0.21956,0 0.40209,0.35087 0.40562,0.7797 0.004,0.42884 1.12303,2.60421 2.48778,4.83416 1.36475,2.22995 3.4126,5.80879 4.55078,7.95297 1.13819,2.14418 2.35779,3.89852 2.71024,3.89852 0.35246,0 0.46629,0.17453 0.25297,0.38784 -0.36436,0.36437 2.38736,6.42086 3.22461,7.0973 0.21231,0.17154 0.46795,0.80073 0.56809,1.3982 0.10014,0.59746 1.24156,3.40439 2.53649,6.23762 1.29493,2.83322 3.71577,8.80032 5.37965,13.26022 1.66387,4.4599 3.26095,8.20306 3.54907,8.31813 0.28812,0.11507 0.39183,0.42283 0.23048,0.68391 -0.16136,0.26108 0.92945,4.67111 2.42403,9.80006 6.61894,22.71432 9.08828,39.38677 9.62687,64.99859 0.21894,10.41117 0.18755,19.05905 -0.0697,19.21751 -0.25731,0.15845 -0.46783,2.07029 -0.46783,4.24852 0,9.79564 -4.25136,33.83634 -8.77296,49.60952 -1.42601,4.97451 -2.63187,9.4656 -2.67969,9.9802 -0.0478,0.5146 -0.24295,1.07599 -0.43363,1.24752 -0.19067,0.17154 -1.14603,2.55743 -2.12301,5.30198 -0.97699,2.74456 -3.42319,8.867 -5.436,13.60544 -2.01281,4.73844 -3.72404,8.94883 -3.80272,9.35644 -0.0787,0.4076 -0.31678,0.88144 -0.52909,1.05298 -0.75986,0.61392 -3.6797,6.86158 -3.21113,6.87093 0.26309,0.005 0.17396,0.21577 -0.19805,0.46782 -0.37201,0.25205 -2.42371,3.50414 -4.55933,7.22686 -17.24807,30.06606 -43.14204,59.21054 -69.76497,78.52266 -2.96215,2.14873 -6.03504,4.52558 -6.82866,5.28189 -0.79362,0.75631 -1.45186,1.17735 -1.46277,0.93564 -0.0109,-0.2417 -0.44404,0.12192 -0.9625,0.80806 -0.51846,0.68614 -1.14109,1.20633 -1.38363,1.15598 -0.7235,-0.15019 -11.98057,6.74811 -11.98057,7.34166 0,0.3008 -0.21052,0.48621 -0.46782,0.41202 -0.2573,-0.0742 -5.80099,2.54102 -12.31931,5.81158 -6.51831,3.27058 -14.58824,7.02767 -17.93317,8.3491 -3.34492,1.32143 -6.08168,2.65248 -6.08168,2.95789 0,0.30541 -0.25034,0.40057 -0.55631,0.21147 -0.67641,-0.41804 -6.30508,1.59634 -6.30508,2.25645 0,0.25831 -0.42103,0.30808 -0.93564,0.11061 -0.5146,-0.19748 -0.93564,-0.0571 -0.93564,0.31188 0,0.369 -0.42104,0.50935 -0.93565,0.31188 -0.5146,-0.19748 -0.93564,-0.0571 -0.93564,0.31188 0,0.36901 -0.42104,0.50935 -0.93564,0.31188 -0.51461,-0.19748 -0.93565,-0.0317 -0.93565,0.36827 0,0.40002 -0.23611,0.58138 -0.52469,0.40303 -0.28857,-0.17834 -3.30602,0.46987 -6.70544,1.44048 -3.39942,0.97061 -8.98769,2.42835 -12.41838,3.23942 -3.43069,0.81106 -6.33177,1.69184 -6.44684,1.95729 -0.11507,0.26544 -0.44811,0.33498 -0.7401,0.15452 -0.29198,-0.18045 -3.7065,0.22807 -7.58781,0.90783 -17.249,3.02094 -42.89295,4.75836 -53.83911,3.64768 z m -69.52661,-79.46313 c 1.85247,-0.55013 4.71753,-1.88342 6.36681,-2.96287 3.37021,-2.20582 7.36559,-7.42106 44.75006,-58.41314 12.45018,-16.98193 22.69939,-30.95435 22.77602,-31.04983 0.13711,-0.17084 21.36138,22.42443 25.06443,26.68349 1.83959,2.11581 1.99719,2.80868 5.10789,22.45545 4.92803,31.1248 5.77772,33.76797 12.50065,38.88631 4.02698,3.06584 7.71586,4.15329 14.08897,4.15329 4.42905,0 5.60092,-0.2487 8.87065,-1.8826 4.32681,-2.16214 9.07681,-6.91263 10.7944,-10.79552 2.51097,-5.67646 2.41159,-7.62315 -1.93963,-37.99709 -3.31014,-23.10651 -4.54554,-29.6947 -6.16269,-32.86458 -1.39659,-2.73755 -9.68319,-11.9875 -33.52873,-37.42662 l -13.69941,-14.61492 -0.41138,-29.36033 c -0.22626,-16.14817 -0.4117,-36.21033 -0.4121,-44.58255 l -7.2e-4,-15.22224 -2.13829,-3.80251 c -2.51824,-4.47821 -6.42392,-8.40986 -10.33696,-10.40573 -2.18497,-1.11446 -4.14256,-1.49004 -8.83475,-1.69502 -5.44866,-0.23803 -6.3607,-0.11094 -9.49246,1.32283 -4.54656,2.08149 -9.10488,6.41784 -11.53079,10.96934 l -1.95388,3.66583 v 15.56019 c 0,8.55811 -0.18579,29.05247 -0.41288,45.54304 l -0.41288,29.98286 -25.82769,35.14687 c -37.38696,50.87698 -49.84259,68.42334 -50.63152,71.32509 -0.37311,1.37228 -0.67327,4.31955 -0.66704,6.54951 0.0403,14.43192 14.21237,24.94789 28.07392,20.83145 z m 28.67017,-143.55767 c 4.58742,-2.29167 4.41063,-0.23505 4.22249,-49.12032 -0.12648,-32.86483 -0.35553,-43.99035 -0.92617,-44.98552 -0.41698,-0.72719 -1.74773,-1.79176 -2.95725,-2.36572 -1.9644,-0.93216 -4.89469,-1.02406 -27.45359,-0.861 l -25.25447,0.18254 -1.69369,1.69434 c -1.27749,1.27798 -1.80436,2.58087 -2.14406,5.30198 -0.55279,4.42809 -0.69524,79.07824 -0.15941,83.53796 0.46988,3.91078 2.29649,6.38028 5.22941,7.06998 1.19427,0.28083 12.69739,0.53891 25.56248,0.57349 21.09932,0.0567 23.60499,-0.044 25.57426,-1.02773 z m 150.383,-20.97062 c 6.34365,-2.26757 10.21539,-8.22016 10.18064,-15.65221 -0.022,-4.71427 -1.20929,-7.85672 -4.17365,-11.04699 -1.5569,-1.67555 -20.73731,-14.52049 -38.18702,-25.57349 -15.30686,-9.69567 -14.80685,-9.45819 -19.88071,-9.44222 -5.30202,0.0167 -8.47045,1.20247 -11.84979,4.43478 -6.95177,6.6493 -7.09277,17.26434 -0.31371,23.61639 3.96743,3.7175 48.34902,32.6271 52.31649,34.07827 1.79148,0.65527 9.68352,0.38053 11.90775,-0.41453 z m -94.86815,-95.12292 c 11.64867,-4.05999 22.27662,-13.81181 27.38512,-25.12758 3.079,-6.82026 3.98915,-11.93551 3.69512,-20.76749 l -0.26067,-7.82973 h 9.4223 9.42229 l 1.9473,-1.90383 c 3.36504,-3.28996 3.42628,-7.75479 0.14941,-10.894233 -1.61704,-1.54922 -2.50863,-1.81236 -7.92267,-2.338248 -6.99897,-0.679845 -15.34058,-2.528683 -17.35035,-3.845532 -0.75578,-0.495205 -2.28751,-2.531952 -3.40384,-4.526095 -3.13475,-5.599708 -12.38174,-14.382432 -18.09391,-17.185477 -6.87933,-3.375777 -11.4767,-4.253017 -20.98586,-4.00438 -13.00682,0.340094 -19.29503,3.171302 -29.12623,13.1138 -6.79246,6.869358 -10.63492,14.24337 -11.91562,22.867115 -0.17703,1.19205 -0.74345,4.97431 -1.25872,8.405 -2.87176,19.12062 1.2685,32.22132 13.93026,44.0785 5.6025,5.24649 11.67887,8.74185 18.26894,10.50898 6.59999,1.7698 20.26661,1.48135 26.09713,-0.5508 z"
   id="path370" /><path
   style="fill:#f9f9f9;stroke-width:0.623762"
   d="m 149.02833,280.08874 c -2.18221,-0.8828 -4.52814,-4.22864 -4.93588,-7.03972 -0.21125,-1.45642 -0.29842,-21.03343 -0.19371,-43.50447 0.20712,-44.45249 0.0538,-42.64748 3.81681,-44.94193 1.87856,-1.14544 3.32793,-1.21195 26.46025,-1.21415 l 24.47284,-0.002 1.91424,1.71535 c 1.14446,1.02554 2.14577,2.71868 2.49001,4.21039 0.32003,1.38685 0.58194,20.78043 0.58968,43.66337 0.0128,37.96247 -0.071,41.33832 -1.07671,43.35148 -2.14782,4.29947 -2.61212,4.36909 -28.84804,4.32583 -12.8651,-0.0212 -23.97537,-0.27493 -24.68949,-0.56382 z"
   id="path1146" /><path
   style="fill:#f9f9f9;stroke-width:0.623762"
   d="m 159.95098,423.3055 c -6.38045,-1.72035 -11.29344,-5.93592 -14.2389,-12.21763 -2.31907,-4.94582 -2.3132,-11.98991 0.0141,-16.87005 0.89982,-1.88688 18.36184,-26.16683 38.80448,-53.95544 l 37.16844,-50.52476 0.0242,-43.7536 c 0.0236,-42.6469 0.0574,-43.86085 1.33383,-47.99359 1.10601,-3.58086 1.906,-4.8359 5.14604,-8.07326 4.65467,-4.6508 8.99152,-6.53103 15.06419,-6.53103 8.12407,0 15.79459,4.88301 19.48958,12.40696 l 1.71834,3.49898 0.17557,44.29849 0.17557,44.29849 23.07236,24.62725 c 18.48906,19.73507 23.43308,25.37071 24.88821,28.36983 1.59916,3.29597 2.27968,6.83156 5.70287,29.62871 4.55916,30.3622 4.81049,34.83011 2.25238,40.03936 -2.27148,4.62556 -7.43063,9.35194 -12.13786,11.1197 -7.51912,2.82373 -16.99305,0.69219 -22.6456,-5.09506 -4.66945,-4.7807 -5.1978,-6.66134 -9.33844,-33.24009 l -3.76956,-24.19682 -13.54419,-14.52615 c -7.4493,-7.98939 -13.73235,-14.55301 -13.96234,-14.58582 -0.22999,-0.0328 -14.90877,19.70366 -32.61952,43.85886 -35.22594,48.04365 -34.58694,47.30069 -42.41268,49.31342 -4.37525,1.12529 -6.49228,1.14638 -10.36104,0.10325 z"
   id="path1185" /><path
   style="fill:#f9f9f9;stroke-width:0.623762"
   d="m 338.42535,258.79693 c -1.53955,-0.61488 -42.9539,-27.12628 -49.31149,-31.56675 -10.57031,-7.38284 -9.20599,-22.64256 2.48805,-27.8285 3.36915,-1.49411 8.73313,-1.6259 11.87022,-0.29165 2.11218,0.89834 46.97814,29.66223 50.84088,32.59445 1.038,0.78795 2.70462,2.93436 3.70359,4.76981 4.27461,7.85386 0.77865,18.10651 -7.4483,21.84375 -2.759,1.25332 -9.53487,1.52055 -12.14295,0.47889 z"
   id="path1224" /><path
   style="fill:#f9f9f9;stroke-width:0.623762"
   d="m 230.23728,164.06385 c -15.64828,-4.21714 -27.71404,-16.45354 -31.99748,-32.44999 -1.13922,-4.25439 -1.52793,-15.65384 -0.64341,-18.86881 l 0.47193,-1.71535 h 43.30279 c 32.66565,0 43.41484,0.1813 43.75892,0.73804 0.25088,0.40592 0.58511,3.63792 0.74274,7.18222 0.21363,4.80344 0.009,7.5933 -0.80351,10.9575 -4.07997,16.89214 -17.10562,30.21693 -33.66813,34.44134 -5.20976,1.3288 -15.69991,1.18755 -21.16385,-0.28495 z"
   id="path1263" /><path
   style="fill:#000000;stroke-width:0.623762"
   d="m 198.34109,106.27987 c 1.70784,-15.947639 10.81376,-29.43983 24.34208,-36.067528 6.89881,-3.379817 11.28267,-4.250341 19.96039,-3.963629 8.35636,0.276095 13.64147,1.745836 20.12199,5.595747 4.80929,2.857073 11.87595,10.074016 14.49683,14.805132 1.20074,2.167537 2.63226,4.427618 3.18117,5.022403 1.52216,1.649408 10.69738,3.855606 17.62164,4.237155 5.6995,0.314059 6.35667,0.484875 8.24538,2.143187 1.12876,0.991061 2.22827,2.603163 2.44335,3.582453 0.52169,2.3752 -1.00947,5.89246 -3.18622,7.31917 -1.64453,1.07787 -4.63079,1.15022 -54.70714,1.32557 l -52.96766,0.18548 z"
   id="path1378" /><path
   style="fill:#000000;stroke-width:0.623762"
   d="m 147.68018,278.54913 c -1.02842,-0.86535 -2.19984,-2.37005 -2.60317,-3.34376 -0.54373,-1.31268 -0.68559,-12.73249 -0.54873,-44.17192 0.17248,-39.62027 0.25833,-42.51403 1.3088,-44.11662 0.61831,-0.9433 1.84936,-1.99079 2.73565,-2.32776 0.8863,-0.33697 12.38366,-0.791 25.54969,-1.00897 l 23.93824,-0.3963 1.63174,1.50464 c 3.41168,3.14591 3.34225,2.16231 3.34225,47.35116 0,44.09457 -0.0227,44.47263 -2.80536,46.78218 -0.95175,0.78993 -4.98577,0.96407 -25.90328,1.11819 l -24.77598,0.18254 z"
   id="path1417" /><path
   style="fill:#ff5555;stroke-width:0.623762;stroke:#ff0000"
   d="m 240.14851,503.22118 c -2.74455,-0.25683 -9.48118,-0.93813 -14.97029,-1.51401 -5.48911,-0.57589 -10.68193,-1.10399 -11.53961,-1.17355 -0.85767,-0.0696 -2.02172,-0.31946 -2.58676,-0.55532 -0.56505,-0.23585 -1.40713,-0.36561 -1.87129,-0.28835 -0.46416,0.0773 -1.26497,-0.0165 -1.77957,-0.20828 -1.05551,-0.39342 -10.25632,-2.30481 -12.54211,-2.60551 -0.8209,-0.10799 -1.91358,-0.36212 -2.42819,-0.56473 -1.2173,-0.47927 -16.86903,-4.90093 -18.08911,-5.11022 -1.11578,-0.1914 -2.36928,-0.67775 -14.95524,-5.80251 -5.32585,-2.16858 -10.10441,-3.99309 -10.61901,-4.05445 -0.51461,-0.0614 -1.07599,-0.28732 -1.24753,-0.50211 -0.17153,-0.2148 -3.53985,-2.00443 -7.48515,-3.97698 C 114.43142,464.06423 93.419088,448.72385 73.281157,428.13071 55.60779,410.05784 44.837553,395.95237 33.336895,375.81683 c -2.155431,-3.77376 -4.152232,-6.95495 -4.437336,-7.0693 -0.285104,-0.11436 -0.518371,-0.56647 -0.518371,-1.00468 0,-0.43823 -1.404097,-3.7961 -3.120216,-7.46194 -3.312337,-7.07558 -7.591059,-17.37509 -10.000626,-24.07299 -0.802225,-2.22995 -1.616708,-4.1948 -1.809963,-4.36634 -0.193255,-0.17153 -0.3905,-0.73292 -0.438322,-1.24752 -0.04782,-0.5146 -1.253684,-5.00569 -2.679694,-9.9802 -2.8188573,-9.83333 -6.2045728,-25.90093 -7.9519561,-37.73762 -0.9097362,-6.16251 -1.1020584,-11.6735 -1.0884017,-31.18812 0.015005,-21.44057 0.1504094,-24.56115 1.4186207,-32.69404 2.0110082,-12.89637 4.1465596,-23.03595 7.0710295,-33.57322 1.4055516,-5.06439 2.5998956,-9.63396 2.6540976,-10.1546 0.0542,-0.52063 0.283072,-1.24517 0.5086,-1.61008 0.225528,-0.36492 1.70387,-4.14934 3.285203,-8.40983 1.581334,-4.26049 3.967722,-10.27259 5.303085,-13.36021 1.335363,-3.08763 2.510318,-6.0349 2.61101,-6.54951 0.100693,-0.5146 0.357394,-1.07599 0.570447,-1.24752 0.761114,-0.6128 4.299455,-8.1091 3.832006,-8.11846 -0.262241,-0.005 -0.172429,-0.21577 0.199581,-0.46782 0.37201,-0.25205 2.434146,-3.5459 4.582523,-7.31966 C 45.421189,106.94108 58.540499,90.191617 78.058329,71.076107 96.014295,53.49026 116.80783,38.747629 140.03465,27.134837 c 3.9453,-1.972542 7.31362,-3.762181 7.48515,-3.976976 0.17154,-0.214794 0.73292,-0.473173 1.24753,-0.574177 0.5146,-0.101004 3.88292,-1.400922 7.48515,-2.888707 3.60222,-1.487785 8.37401,-3.354342 10.60396,-4.147904 2.22995,-0.793563 4.1948,-1.598843 4.36633,-1.789512 0.17154,-0.190668 0.59258,-0.349055 0.93565,-0.35197 1.59628,-0.01357 9.04455,-2.427288 9.04455,-2.931023 0,-0.312397 0.25714,-0.409075 0.57142,-0.214839 0.31428,0.194236 1.36688,0.03075 2.33911,-0.3633004 0.97223,-0.3940513 2.18873,-0.7787929 2.70333,-0.8549817 1.29756,-0.1921064 21.78777,-4.5985696 23.70297,-5.0973751 0.85768,-0.2233762 1.75545,-0.3649206 1.99506,-0.3145431 0.2396,0.050378 3.42653,-0.3282508 7.08206,-0.8413963 14.171,-1.98925348 39.46591,-2.52370591 56.10605,-1.1854563 3.42211,0.2752164 17.36804,2.3441915 22.71235,3.369533 1.85664,0.3562095 3.51497,0.5083921 3.68518,0.3381835 0.17021,-0.1702086 0.61599,-0.064422 0.99062,0.2350809 0.58411,0.4669608 11.349,3.1513247 14.09205,3.5140325 0.5146,0.068045 1.37375,0.3126915 1.90922,0.5436595 2.34691,1.0123065 8.94121,2.7933785 9.3673,2.5300385 0.25763,-0.15922 0.57118,0.01881 0.69678,0.395627 0.12561,0.376815 0.99146,0.72943 1.92413,0.783589 0.93266,0.05416 1.69595,0.339022 1.69618,0.633029 2.5e-4,0.294006 0.42149,0.372989 0.93609,0.175517 0.51461,-0.197473 0.93564,-0.123636 0.93564,0.164081 0,0.545582 5.02409,2.152033 5.67394,1.814238 0.20457,-0.10634 0.76596,0.133216 1.24753,0.532345 0.48156,0.399129 3.9333,2.031423 7.67054,3.627319 10.00626,4.272933 23.28111,11.050306 32.56058,16.623564 4.49594,2.700262 8.46735,4.909566 8.82537,4.909566 0.35802,0 0.81935,0.438831 1.02516,0.975179 0.20582,0.536348 0.65689,0.800476 1.00238,0.58695 0.34549,-0.213526 0.62817,-0.104455 0.62817,0.24238 0,0.346835 1.26312,1.499657 2.80693,2.561828 1.54381,1.06217 2.80693,1.723739 2.80693,1.470152 0,-0.253587 0.35087,-0.01729 0.7797,0.525096 0.42884,0.542389 4.42872,3.893185 8.88862,7.446212 18.7256,14.917945 39.54752,37.506757 52.38782,56.833294 1.99439,3.00185 3.91152,5.45792 4.26026,5.45792 0.34875,0 0.47559,0.1585 0.28187,0.35223 -0.40394,0.40393 8.73488,16.56477 9.76011,17.25951 0.37195,0.25205 0.46103,0.46257 0.19794,0.46782 -0.46857,0.009 2.45127,6.25701 3.21113,6.87093 0.21231,0.17154 0.47794,0.73292 0.5903,1.24753 0.11235,0.5146 1.19654,3.18119 2.40931,5.92574 1.21277,2.74456 3.57345,8.59016 5.24597,12.99022 1.67252,4.40007 3.24162,8.32484 3.4869,8.72171 0.24528,0.39687 0.49348,1.14756 0.55156,1.66819 0.0581,0.52064 1.26881,5.00116 2.69051,9.95671 4.35653,15.1853 7.47043,31.80252 8.77298,46.81664 0.75842,8.74198 0.76533,33.99615 0.0118,43.2594 -1.32862,16.33393 -5.47457,37.28742 -10.81751,54.67129 -0.4745,1.54381 -0.87131,2.94728 -0.88181,3.11881 -0.0105,0.17154 -0.31217,1.01362 -0.67038,1.87129 -0.35822,0.85767 -2.18077,5.48911 -4.05011,10.29208 -1.86934,4.80297 -4.25706,10.62735 -5.30603,12.94307 -1.04898,2.31572 -1.70845,4.21469 -1.4655,4.21994 0.24296,0.005 0.12769,0.21578 -0.25616,0.46783 -0.79996,0.52528 -4.18039,7.00777 -3.65435,7.00777 0.19084,0 0.0409,0.35087 -0.33319,0.7797 -0.37409,0.42884 -3.07206,4.84976 -5.9955,9.82426 -15.15391,25.78585 -37.21446,51.24662 -60.49841,69.82312 -4.42116,3.52731 -8.38934,6.85706 -8.81818,7.39946 -0.42883,0.54238 -0.7797,0.77472 -0.7797,0.5163 0,-0.25842 -1.26312,0.43724 -2.80693,1.54592 -1.54381,1.10869 -2.80693,2.26547 -2.80693,2.57063 0,0.30516 -0.28268,0.38013 -0.62817,0.1666 -0.34549,-0.21352 -0.79656,0.0506 -1.00238,0.58695 -0.20581,0.53635 -0.67042,0.97518 -1.03246,0.97518 -0.6442,0 -11.69202,6.65395 -12.30729,7.41251 -0.37472,0.462 -27.61043,13.79541 -28.1794,13.79541 -0.21856,0 -2.31822,0.8864 -4.66592,1.96977 -2.3477,1.08337 -4.54923,2.00574 -4.8923,2.04971 -1.70704,0.21879 -5.92575,1.8543 -5.92575,2.2973 0,0.278 -0.42103,0.34389 -0.93564,0.14642 -0.5146,-0.19748 -0.93564,-0.0571 -0.93564,0.31188 0,0.369 -0.42104,0.50935 -0.93565,0.31188 -0.5146,-0.19748 -0.93564,-0.0571 -0.93564,0.31188 0,0.36901 -0.42104,0.50935 -0.93564,0.31188 -0.51461,-0.19748 -0.93565,-0.0317 -0.93565,0.36827 0,0.40002 -0.23277,0.58345 -0.51728,0.40762 -0.28449,-0.17584 -1.89848,0.10194 -3.58663,0.61727 -1.68814,0.51534 -6.99906,1.91755 -11.80203,3.11604 -4.80297,1.19848 -9.15371,2.35217 -9.66831,2.56374 -0.51461,0.21158 -1.18057,0.32866 -1.47991,0.26019 -0.29934,-0.0685 -2.68524,0.30024 -5.30198,0.81938 -15.673,3.10938 -44.18264,5.0975 -56.53,3.94211 z m -66.28096,-80.4739 c 1.80453,-0.82955 4.23766,-2.31722 5.40695,-3.30593 2.26611,-1.91614 16.49532,-20.78488 44.65764,-59.21858 9.5526,-13.03663 18.27234,-24.89728 19.37719,-26.35699 l 2.00882,-2.65402 12.34588,13.25798 c 6.79023,7.29189 12.83064,13.81937 13.42312,14.50551 0.78128,0.90479 1.7934,5.87437 3.68407,18.08911 3.10287,20.04618 5.1974,30.98398 6.55587,34.23527 1.39996,3.35058 6.25598,8.32789 9.95242,10.20102 3.6605,1.85492 12.08923,2.62654 16.27393,1.48982 6.08541,-1.65302 12.93871,-8.48864 14.96302,-14.92442 1.2908,-4.10381 0.97362,-7.93076 -2.90549,-35.05615 -3.07491,-21.50187 -4.69576,-30.17904 -6.16734,-33.01658 -1.4274,-2.75236 -4.66534,-6.40146 -25.20126,-28.40137 -8.95509,-9.59348 -17.60083,-18.87991 -19.21275,-20.6365 l -2.93078,-3.1938 -0.40216,-44.23478 -0.40216,-44.23479 -1.65642,-3.37991 c -2.22284,-4.53569 -6.11848,-8.74409 -10.17329,-10.99004 -3.13017,-1.73381 -3.75964,-1.84787 -10.19748,-1.84787 -6.44875,0 -7.04658,0.10884 -9.94084,1.80996 -4.76446,2.80033 -8.28296,6.40745 -10.32868,10.58882 l -1.86845,3.81904 -0.14349,27.13366 c -0.0789,14.92352 -0.29069,35.41411 -0.47061,45.53466 l -0.32714,18.40099 -27.08931,36.80198 c -29.5896,40.19874 -46.93718,64.25287 -48.4543,67.18665 -1.50028,2.90122 -1.83854,10.2047 -0.66034,14.25757 1.99673,6.8685 7.46194,12.59044 14.40356,15.08019 4.28768,1.53786 10.97206,1.13174 15.47982,-0.9405 z m 27.13838,-143.18721 c 1.11416,-0.79468 2.23694,-2.19815 2.49505,-3.11881 0.81821,-2.91835 0.57332,-88.14547 -0.25858,-89.9966 -0.40034,-0.89082 -1.73111,-2.09574 -2.95725,-2.67758 -2.0029,-0.95044 -4.78652,-1.03936 -27.40229,-0.87536 -27.42077,0.19884 -26.26299,0.0405 -28.36706,3.87968 -0.95588,1.74417 -1.05045,5.76329 -1.05045,44.64444 0,23.50025 0.21253,43.42946 0.47229,44.28713 0.74263,2.45199 2.05323,3.78923 4.62909,4.7232 1.90407,0.69038 7.21641,0.83558 26.39862,0.72155 24.00146,-0.14269 24.01598,-0.14357 26.04058,-1.58765 z m 148.75998,-20.19269 c 3.29413,-0.98695 8.19509,-5.48246 9.48125,-8.6969 1.39055,-3.47533 1.43724,-10.15059 0.0932,-13.3289 -0.5803,-1.37227 -1.8121,-3.30588 -2.73734,-4.2969 -1.81919,-1.94852 -26.73125,-18.68337 -42.81139,-28.75885 l -9.94102,-6.22883 -4.64874,-0.23475 c -5.90101,-0.29798 -8.55524,0.51239 -12.20727,3.72703 -4.31542,3.79858 -5.64888,6.72599 -5.64888,12.40122 0,5.39567 1.32055,8.57129 4.85462,11.67424 4.24979,3.73137 42.53064,28.84891 50.1472,32.90353 3.35915,1.78821 9.06052,2.14475 13.41834,0.83911 z m -98.97205,-94.11877 c 4.96839,-0.90232 14.07784,-5.34051 18.65028,-9.08656 7.83875,-6.42202 13.52353,-15.37263 16.01094,-25.20897 1.10674,-4.37659 1.27365,-6.47187 1.02653,-12.88674 l -0.2951,-7.6604 h 9.45589 9.45588 l 1.59989,-1.71535 c 3.28345,-3.52039 3.76945,-6.05937 1.78337,-9.316623 -1.89661,-3.110503 -2.27766,-3.242747 -13.13005,-4.556871 C 285.18971,93.5866 281.20245,91.988383 279.37306,88.412441 277.75358,85.24681 274.9188,81.74401 270.4568,77.395038 261.59922,68.76183 254.10936,65.806931 241.08416,65.806931 c -10.23564,0 -16.53139,1.618083 -22.56263,5.798869 -3.85409,2.671605 -13.10604,12.380011 -15.14071,15.887708 -2.0594,3.550312 -4.40609,10.287326 -4.9392,14.179762 -0.21144,1.54381 -0.80287,5.61386 -1.31427,9.04455 -1.79702,12.05503 -0.829,20.43335 3.38721,29.31683 5.69889,12.00747 18.18196,22.34727 30.10588,24.93688 4.79757,1.04193 15.177,1.18449 20.17342,0.27708 z"
   id="path1606" /><path
   style="fill:#ff5555;stroke:#ff0000;stroke-width:0.623762"
   d="m 225.80198,501.16998 c -13.069,-1.42708 -14.70264,-1.6744 -25.88614,-3.91898 -9.23915,-1.85434 -27.80454,-7.28774 -34.65127,-10.14116 -3.41284,-1.42232 -8.45071,-3.41033 -11.19526,-4.41781 C 139.60072,477.38089 112.9829,461.48739 96.434169,448.27808 87.152397,440.86932 65.228472,419.18779 57.33556,409.61177 44.886173,394.50764 31.774242,373.57147 24.710128,357.51786 14.531292,334.38587 10.375602,321.3047 5.6543665,297.53465 2.1906867,280.09604 2.0770236,278.4273 2.3382123,248.84875 2.5694589,222.661 2.6338409,221.44267 4.2483107,212.70297 10.280269,180.04984 20.65528,150.82367 34.584176,127.24752 47.365493,105.61378 58.5123,91.512989 77.744171,72.649822 97.12672,53.638864 113.62525,41.719542 139.09901,28.324159 c 8.76904,-4.611199 29.56975,-13.379991 34.76334,-14.654907 1.28024,-0.314271 4.36787,-1.255107 6.86139,-2.090748 6.45937,-2.1646903 29.32893,-6.9988552 38.52874,-8.1441978 13.19347,-1.6425414 34.42264,-2.3692527 47.72154,-1.6335916 17.76089,0.9824871 39.17252,4.6162583 54.13986,9.1880864 2.6765,0.817546 5.35712,1.486447 5.95693,1.486447 0.59982,0 1.35723,0.233467 1.68315,0.518815 0.32592,0.285349 3.11881,1.321111 6.20644,2.301695 5.61738,1.783997 6.8821,2.307834 20.27227,8.396607 11.45108,5.207031 33.2356,17.269435 37.73763,20.895878 1.37227,1.105386 3.33713,2.460201 4.36633,3.010699 3.58489,1.917468 20.02667,16.127666 29.557,25.545337 24.90289,24.608523 42.78705,50.064821 54.22404,77.182451 10.93777,25.93397 16.25056,45.48048 20.17525,74.22773 1.09851,8.04624 1.1197,45.40799 0.0308,54.26732 -2.95727,24.06 -8.36824,45.51147 -16.72186,66.29283 -6.09546,15.16373 -9.56296,22.3079 -15.80985,32.57351 -17.47867,28.72292 -36.13418,50.16409 -62.05088,71.3164 -13.97422,11.40527 -24.16457,17.87828 -41.84011,26.57725 -15.26374,7.51199 -20.17316,9.66105 -28.69307,12.56017 -3.4307,1.16738 -6.79901,2.37937 -7.48515,2.69331 -2.49727,1.14261 -26.39396,6.89195 -33.68317,8.10388 -24.61174,4.09204 -45.90901,4.77824 -69.23762,2.23085 z m -52.47077,-77.66094 c 1.81089,-0.67754 4.43893,-2.21316 5.84009,-3.4125 2.96465,-2.53764 15.19027,-18.59486 44.63166,-58.61955 11.61104,-15.78487 21.33758,-28.69976 21.61452,-28.69976 0.97916,0 25.30258,26.71018 25.78337,28.31341 0.26839,0.89495 2.00187,10.60936 3.85218,21.58758 4.94106,29.31613 5.18343,30.1076 10.8395,35.3982 3.88825,3.637 5.80757,4.59659 11.00377,5.50147 8.6891,1.51314 14.20918,-0.12181 20.01567,-5.9283 5.9707,-5.97071 7.38626,-10.42788 6.45119,-20.31296 -0.79609,-8.41585 -5.25718,-39.5187 -6.88891,-48.0297 -2.11687,-11.04146 -0.64539,-9.06616 -31.21551,-41.90321 l -18.39552,-19.75964 -0.41429,-29.15222 c -0.22785,-16.03372 -0.41428,-35.85075 -0.41428,-44.03784 v -14.88563 l -1.90669,-3.77713 c -2.38949,-4.73357 -6.18814,-8.8945 -10.24393,-11.22091 -2.9624,-1.69924 -3.5288,-1.79658 -10.48561,-1.80212 -6.07186,-0.005 -7.77038,0.20654 -9.74188,1.21232 -3.83364,1.95578 -9.05016,7.15392 -11.10743,11.0683 l -1.90228,3.61947 -0.43241,45.53465 -0.43242,45.53465 -2.95945,4.05446 c -1.62771,2.22995 -14.18828,19.35223 -27.91238,38.0495 -28.78237,39.21216 -43.20561,59.27095 -44.85154,62.37624 -1.71949,3.24405 -1.63949,12.98917 0.13825,16.84159 3.04328,6.59488 8.77762,11.74495 15.03825,13.506 3.69656,1.03981 9.69503,0.59028 14.09608,-1.05637 z m 26.87842,-142.88135 c 0.97745,-0.47865 2.29566,-1.572 2.92934,-2.42967 1.09456,-1.48146 1.15217,-3.74465 1.1525,-45.27664 1.9e-4,-24.04448 -0.17862,-44.61209 -0.39737,-45.70581 -0.24513,-1.22569 -1.14434,-2.52115 -2.34393,-3.37682 -1.93479,-1.38011 -2.09255,-1.38819 -26.8967,-1.37614 -18.62547,0.009 -25.52934,0.2143 -27.23388,0.80968 -4.3751,1.5282 -4.26612,0.27346 -4.26612,49.1228 0,46.86742 -0.0646,45.92688 3.2812,47.79241 2.49845,1.39309 7.90452,1.65927 30.12809,1.48347 17.16808,-0.13582 22.25175,-0.36011 23.64687,-1.04328 z m 151.62039,-21.61512 c 3.39439,-1.74027 7.52268,-6.33595 8.34192,-9.28637 0.85335,-3.07325 0.85612,-8.58705 0.006,-11.64906 -0.36399,-1.3108 -1.65318,-3.4806 -2.86487,-4.8218 -2.25998,-2.50152 -20.89671,-15.28918 -41.37728,-28.39114 l -11.5396,-7.3822 -4.56128,-0.25669 c -6.17476,-0.34749 -9.45975,0.67937 -13.34328,4.17099 -4.22064,3.79472 -5.45913,6.64284 -5.45913,12.5542 0,5.73868 1.22796,8.72631 4.97554,12.10548 2.69517,2.43021 34.14699,23.44902 44.34435,29.6347 2.95462,1.79227 6.46329,3.66464 7.79703,4.16084 3.38711,1.26011 10.42879,0.82829 13.68075,-0.83895 z M 249.74376,165.88911 c 7.34206,-1.19132 16.43545,-5.83995 22.457,-11.48025 10.27001,-9.61976 15.55247,-22.60992 14.88875,-36.61307 l -0.3207,-6.76609 h 9.47602 9.47601 l 1.52077,-2.00104 c 3.48768,-4.58912 3.8392,-6.41478 1.86009,-9.660613 -1.91258,-3.13672 -3.48678,-3.75286 -13.08381,-5.121008 -11.38835,-1.62351 -13.79609,-2.726833 -17.14377,-7.85595 -3.12589,-4.789291 -10.89706,-12.593899 -15.40527,-15.471552 -6.10048,-3.894018 -10.28951,-4.979963 -20.41043,-5.291083 -16.23124,-0.49896 -21.10577,1.37141 -31.96885,12.26653 -10.28117,10.311503 -12.37662,15.167194 -14.6447,33.935496 -1.33273,11.02823 -0.748,17.59458 2.26176,25.39915 5.48873,14.23276 20.48586,26.90844 33.91118,28.66195 5.59397,0.73065 12.61403,0.72963 17.12595,-0.002 z"
   id="path1867" /><path
   id="path1906"
   style="fill:#ff5555;stroke:#ff0000;stroke-width:0.623762"
   d="M 255.18555 2.1660156 C 237.34885 1.9877798 219.2543 3.5893427 203.14844 6.9042969 C 184.13591 10.817511 173.54499 13.981163 158.43555 20.263672 C 133.68448 30.555178 110.84361 44.362828 92.230469 60.283203 C 82.538549 68.572991 62.560376 88.957159 55.669922 97.587891 C 33.388407 125.49693 18.187572 156.77941 9.1289062 193.36719 C 3.7350873 215.15272 3.3886112 218.14213 2.9960938 246.07422 C 2.5934875 274.72423 3.0041155 281.13084 6.3007812 297.42969 C 10.472499 318.05483 14.482907 331.49661 21.488281 348.3457 C 30.508761 370.04147 43.182541 391.27231 57.623047 408.87695 C 63.851047 416.4696 89.017387 441.41676 96.458984 447.375 C 103.34735 452.89028 116.88156 462.17561 126 467.64258 C 149.42238 481.68546 177.96828 492.46859 205.59766 497.70898 C 211.94948 498.91371 231.08524 501.23112 238.90039 501.74219 C 251.92979 502.59423 277.3936 501.14594 292.73047 498.68164 C 308.52965 496.14307 328.09338 490.76043 343.53125 484.70508 C 352.81505 481.06361 377.24479 468.74935 385.32227 463.63867 C 418.64736 442.55369 449.74637 409.52645 470.95703 372.69727 C 484.82024 348.62587 496.17704 313.46996 500.25781 281.99023 C 501.46632 272.66765 501.68827 233.20767 500.58203 224.32812 C 498.04789 203.98713 492.93917 182.92795 486.11133 164.67383 C 475.22688 135.57443 462.60756 114.16267 442.66602 90.958984 C 430.0915 76.327446 408.98974 56.616303 396.50781 47.84375 C 380.77992 36.789866 353.45405 22.517302 336.60547 16.554688 C 333.29867 15.384431 329.75187 14.126879 328.72266 13.759766 C 320.35511 10.775106 300.4459 6.3705331 286.52734 4.4238281 C 276.49623 3.0208371 265.88757 2.2729571 255.18555 2.1660156 z M 237.52539 64.929688 C 245.09079 64.734544 253.64322 65.67902 258.03516 67.410156 C 264.45838 69.941958 272.13892 76.511909 278.66992 85.060547 C 283.25284 91.059283 284.77356 91.818191 295.70898 93.570312 C 304.91471 95.045299 307.52092 96.099947 309.58398 99.179688 C 311.4518 101.96795 311.10678 104.55221 308.31641 108.64648 L 306.26758 111.65234 L 296.91016 111.65234 L 287.55469 111.6543 L 287.51758 119.60742 C 287.48875 125.8745 287.1857 128.60913 286.08398 132.51367 C 281.82864 147.59476 270.40089 159.72512 255.66406 164.80469 L 255.66406 164.80664 C 251.4069 166.27402 249.03119 166.68298 243.69141 166.86719 C 228.37984 167.39539 220.16457 164.24174 209.53516 153.75781 C 195.86468 140.27443 192.75721 127.51488 197.15039 102.92188 C 199.28835 90.953556 202.45827 85.355344 212.57617 75.689453 C 219.36167 69.207102 224.09035 66.52037 230.48047 65.517578 C 232.59252 65.186139 235.00359 64.994735 237.52539 64.929688 z M 242.50195 182.22852 C 249.38876 182.02026 250.05232 182.10756 253.17383 183.63477 C 257.33087 185.66861 262.22525 190.77865 264.64062 195.60547 L 266.48633 199.29297 L 266.92578 243.22852 L 267.36328 287.16406 L 270.59766 290.6543 C 272.37637 292.57363 281.0918 301.96935 289.96484 311.53516 C 308.52602 331.54556 312.32617 335.98439 314.45898 340.14648 C 317.21677 345.52823 323.6146 387.55635 323.6875 400.76758 C 323.73085 408.62457 323.67617 408.98001 321.88867 412.20703 C 319.68878 416.17854 314.2195 421.36019 310.32227 423.16602 C 308.14775 424.17362 306.32033 424.45915 302.21289 424.43555 C 294.46029 424.39089 290.63078 423.0474 285.97852 418.74023 C 279.72489 412.95047 279.71159 412.91101 274.4707 382.67773 C 272.56764 371.69951 270.76904 362.1508 270.47266 361.45703 C 269.51234 359.20911 245.84262 333.14492 245.27734 333.71289 C 245.10663 333.88443 233.44879 349.57025 219.37109 368.57031 C 180.84291 420.57018 179.31996 422.37874 172.25586 424.47656 C 167.62987 425.85033 159.71181 425.67381 156.28906 424.12109 C 150.64607 421.56115 145.23071 415.76054 143.32812 410.23828 C 142.28593 407.21328 142.19466 398.05685 143.17773 395.07812 C 144.05573 392.41774 155.50706 376.34786 191.82617 326.80469 L 219.13477 289.55078 L 219.58789 244.10938 L 220.03906 198.66797 L 221.58008 195.60156 C 223.50821 191.76489 228.64058 186.28147 232.3418 184.10547 C 234.87383 182.61686 235.89807 182.42822 242.50195 182.22852 z M 174.86328 182.28516 L 201.27148 182.45117 L 202.72461 184.13867 C 203.76092 185.34384 204.29374 186.95374 204.58398 189.75391 C 204.80768 191.91251 204.90209 212.53216 204.79297 235.57617 L 204.59375 277.47461 L 203.09961 279.06641 C 202.27725 279.94153 200.73249 280.92566 199.66797 281.25391 C 197.22364 282.00765 162.39776 282.56529 154.06836 281.98438 C 150.63766 281.74511 147.07845 281.18021 146.1582 280.72852 C 144.68631 280.00606 143.891 279.46398 143.4375 275.32031 C 143.30486 273.51399 143.17776 271.07657 143.07227 266.54102 C 143.03142 264.83735 142.96742 263.59017 142.94531 261.35547 C 142.92304 260.06503 142.91684 258.28894 142.89648 256.90625 C 142.86402 250.48272 142.86261 242.81253 142.86914 232.03906 C 142.88601 204.21335 143.12556 187.37743 143.52344 186.19336 C 143.91061 185.04119 144.98002 183.89871 146.30469 183.2207 C 148.27686 182.21125 150.65561 182.13341 174.86328 182.28516 z M 300.54883 196.58203 C 301.73182 196.63055 302.79229 196.75884 303.58789 196.97852 C 305.96531 197.63497 324.86104 209.62397 342.44531 221.63281 C 360.40403 233.89737 361.1582 234.79293 361.1582 243.8457 C 361.1582 248.90587 360.95096 250.14995 359.79492 252 C 357.83304 255.13969 354.03182 258.65061 351.41602 259.74023 C 348.63432 260.89896 341.89318 261.47641 339.19336 260.78711 C 338.09095 260.50566 335.01543 259.04497 332.35742 257.54102 C 324.22598 252.94013 288.50073 228.98008 285.2793 225.9668 C 280.65793 221.64406 279.19626 215.04744 281.29492 207.98047 C 282.30423 204.58178 286.50923 199.95845 290.36133 198.01172 C 292.33995 197.01179 296.99986 196.43647 300.54883 196.58203 z " /><path
   style="fill:#d40000;stroke:#ff0000;stroke-width:0.623762"
   d="m 234.8725,500.80984 c -26.31031,-2.3348 -47.50149,-6.91821 -68.95171,-14.91349 -22.96562,-8.56013 -43.27204,-19.80216 -64.46132,-35.68707 C 92.640284,443.59783 69.915541,421.90066 60.545607,411.14548 42.335931,390.24368 25.739105,360.61438 15.774219,331.21782 10.55852,315.83144 5.2263342,291.7853 4.0863362,278.5099 2.7542893,262.99807 3.6449678,223.42711 5.5767724,212.29297 8.0661795,197.94505 14.837444,174.02594 20.322681,160.20389 30.897604,133.55654 45.605937,109.41669 62.8406,90.421954 71.748405,80.604439 90.919379,62.024116 97.618812,56.715242 117.88094,40.658788 139.47626,28.373716 164.98515,18.392105 194.03308,7.0256714 230.3328,1.4397229 264.15387,3.1316216 c 14.71784,0.7362598 23.67528,1.8443097 38.059,4.7079604 19.96514,3.974854 33.38849,8.286815 50.88486,16.345671 14.09266,6.491092 33.71949,17.525125 43.21476,24.294946 12.78975,9.118679 36.78859,31.947734 48.77187,46.394551 12.95918,15.62333 21.57784,28.8092 29.92551,45.78367 11.16444,22.70218 18.83724,46.72173 23.51202,73.60396 1.72554,9.92274 1.73542,10.13999 1.71469,37.73762 -0.0206,27.44959 -0.04,27.86811 -1.74573,37.73762 -4.76362,27.5623 -13.80462,55.32312 -25.01247,76.80191 -7.35404,14.09335 -19.23788,31.51499 -31.42751,46.07259 -7.57491,9.04642 -27.17751,28.21444 -36.29344,35.48885 -12.92123,10.31098 -23.12241,16.78489 -39.60892,25.1367 -20.88456,10.57982 -32.77487,15.21342 -51.46039,20.05391 -24.97166,6.46891 -57.31218,9.51524 -79.81562,7.51826 z m -63.7418,-75.44242 c 8.06497,-1.72963 9.60688,-3.56026 57.76037,-68.57534 8.51217,-11.49282 15.71844,-21.16085 16.01394,-21.4845 0.32536,-0.35637 1.31092,0.13566 2.49883,1.24752 3.41591,3.19722 19.97571,21.70324 21.45771,23.97955 1.12102,1.72186 2.23913,6.73034 5.29154,23.70297 4.8459,26.94517 5.28353,28.41831 9.87295,33.23355 5.37287,5.63725 8.27616,6.88713 16.70293,7.19067 5.87387,0.21158 7.35547,0.0643 9.66832,-0.96132 3.68116,-1.63232 9.59117,-7.14932 11.81851,-11.03258 1.73997,-3.03356 1.81726,-3.49867 1.82214,-10.96497 0.011,-16.82383 -6.0947,-56.30115 -9.75027,-63.04187 -1.86418,-3.43746 -8.3958,-10.87995 -29.8865,-34.05429 l -16.29024,-17.56646 -0.41437,-28.22653 c -0.22791,-15.5246 -0.41438,-35.20579 -0.41438,-43.73599 v -15.50944 l -1.94002,-3.84315 c -2.51417,-4.98055 -7.95275,-10.65187 -12.21404,-12.73672 -3.1965,-1.56391 -3.71463,-1.62831 -10.76487,-1.33794 -6.49098,0.26733 -7.74131,0.50117 -10.11272,1.8913 -3.68617,2.16086 -9.38404,8.26492 -11.36617,12.17648 -1.61855,3.19405 -1.63188,3.3369 -1.63188,17.48509 0,7.8456 -0.18621,28.20589 -0.4138,45.24508 l -0.41379,30.98035 -20.23152,27.59992 c -29.13396,39.74467 -46.71443,64.08076 -51.65944,71.51055 l -4.31611,6.4849 v 7.23787 c 0,6.04404 0.21594,7.70086 1.30917,10.04481 2.6395,5.65926 9.68454,11.90506 14.80385,13.1244 2.98695,0.71144 9.33222,0.67976 12.79986,-0.0639 z m 26.46949,-143.35897 c 2.90004,-0.362 4.0042,-0.84471 5.61386,-2.45419 l 2.00377,-2.00355 V 233.4313 c 0,-24.26568 -0.21979,-45.10184 -0.48841,-46.30259 -0.26863,-1.20074 -1.07213,-2.8849 -1.78556,-3.74257 l -1.29714,-1.55941 h -27.24659 c -25.19972,0 -27.37549,0.0845 -28.96257,1.12421 -0.94381,0.61831 -1.9945,1.8567 -2.33488,2.75196 -0.9554,2.51289 -0.48294,91.79642 0.49478,93.50115 0.77175,1.34563 3.00502,2.47677 5.79364,2.93447 2.74409,0.45039 44.46068,0.33784 48.2091,-0.13007 z m 154.6047,-21.91495 c 2.07253,-1.06219 7.32209,-6.21136 8.3787,-8.21846 1.17329,-2.22877 1.20269,-12.88604 0.0432,-15.64508 -1.58793,-3.77835 -8.43344,-9.06246 -30.81606,-23.78718 -16.49523,-10.85161 -24.90589,-15.86417 -27.40566,-16.33313 -2.78424,-0.52233 -9.21209,0.21918 -12.01682,1.38625 -2.82609,1.17595 -7.23521,5.44662 -8.93824,8.65757 -1.93142,3.64156 -1.93156,12.05551 -2.4e-4,15.67403 2.11249,3.95798 5.74563,6.76599 27.62454,21.35068 21.28692,14.19006 26.97058,17.56644 30.56436,18.15677 2.89976,0.47633 10.72248,-0.2965 12.56627,-1.24145 z M 252,166.45807 c 13.6368,-3.26434 26.17266,-13.82232 32.20312,-27.12222 2.73578,-6.03364 3.64367,-10.85821 3.654,-19.41753 l 0.009,-7.64109 h 9.35006 9.35006 l 2.26916,-3.4176 c 3.91151,-5.89116 2.92989,-10.351133 -2.91259,-13.233265 -1.52599,-0.752781 -6.14283,-1.96764 -10.25966,-2.6997 -10.33327,-1.83746 -11.76006,-2.576924 -16.97433,-8.797276 -8.12922,-9.69774 -15.156,-15.445173 -21.52814,-17.608569 -7.59679,-2.579178 -23.38951,-2.852741 -30.80014,-0.533522 -5.47303,1.712826 -9.87531,4.896728 -17.00386,12.297837 -5.09957,5.294551 -6.7271,7.469816 -8.73365,11.672902 -4.04912,8.481615 -6.05439,20.524783 -5.55424,33.357433 0.51562,13.22945 3.92131,20.62093 14.17007,30.75384 8.74809,8.64919 14.89701,11.88604 24.8653,13.08929 4.70678,0.56815 14.13796,0.19897 17.89562,-0.70053 z"
   id="path2293" /><path
   style="fill:#d40000;stroke:#d40000;stroke-width:6.32212389"
   d="M 234.22277,500.26613 C 197.29124,496.52752 171.16296,489.28593 141.78161,474.64559 127.82913,467.69326 110.39493,456.66197 99.347987,447.79622 87.540627,438.32019 65.583225,416.65827 56.911613,405.93091 40.157975,385.20557 25.122219,357.27277 16.191166,330.28218 10.589479,313.35328 5.9437551,292.24613 4.6818392,277.99127 3.3348293,262.77518 4.2735233,223.75734 6.2734465,211.83437 7.508605,204.47072 11.52673,188.59848 15.024982,177.2644 23.564923,149.59565 38.131068,121.67886 55.11711,100.42574 65.591371,87.320233 88.609113,64.392835 100.65214,55.069428 c 25.73573,-19.923937 59.48385,-36.523213 89.59538,-44.068186 28.30585,-7.0925255 62.5562,-9.3325726 91.38119,-5.9765275 19.81557,2.3070927 45.74533,8.7931425 61.41895,15.3632845 17.76774,7.447968 42.98603,21.163012 54.3518,29.559403 10.54364,7.78904 34.02362,30.001413 44.48309,42.081582 29.05405,33.555996 47.07329,72.703346 55.98044,121.619156 1.69015,9.28192 1.70207,9.54425 1.7133,37.7281 0.0124,30.93891 -0.11832,32.5672 -4.03844,50.33223 -9.13789,41.41059 -22.52123,70.1889 -48.09787,103.42519 -7.0844,9.20603 -32.84065,35.18553 -42.6182,42.98762 -15.27745,12.1908 -33.50913,22.83122 -56.59968,33.03289 -20.86253,9.2173 -44.69391,15.30202 -71.2716,18.19735 -10.42176,1.13533 -35.28913,1.66763 -42.72773,0.91461 z m -63.8014,-74.30558 c 6.05203,-1.05391 10.06041,-4.49702 20.25223,-17.39619 3.87918,-4.90965 45.95504,-61.09546 52.7727,-70.4698 l 2.03023,-2.79157 4.45532,4.63551 c 2.45042,2.54953 7.64959,8.2956 11.5537,12.76903 5.64551,6.46879 7.28158,8.77242 7.99347,11.25507 0.4923,1.71686 2.42387,11.28012 4.29237,21.25169 5.09805,27.20661 5.5477,28.54442 11.44932,34.0647 4.0289,3.76856 5.96121,4.70502 11.47436,5.56081 5.84076,0.90663 11.41513,0.45956 14.61329,-1.17202 3.57695,-1.82483 8.51405,-6.44875 10.95482,-10.25993 l 2.09326,-3.26854 -0.0707,-9.67609 c -0.14659,-20.07919 -6.22329,-57.26519 -10.33195,-63.22579 -3.07394,-4.45948 -12.98133,-15.57759 -35.23498,-39.54079 l -9.98667,-10.75386 -0.41313,-22.56349 c -0.22721,-12.40993 -0.41312,-32.09204 -0.41312,-43.73804 V 199.4667 l -1.94488,-3.64897 c -2.98708,-5.60434 -8.03847,-10.80037 -12.75886,-13.12421 -4.02188,-1.97997 -4.06718,-1.98646 -10.9397,-1.56906 -3.7956,0.23053 -7.8843,0.82996 -9.08598,1.33205 -2.82236,1.17926 -10.07085,8.46032 -12.41345,12.46923 l -1.82248,3.11881 -0.3955,33.37129 c -0.21752,18.35421 -0.42847,38.8448 -0.46877,45.53466 l -0.0733,12.16336 -17.83795,24.32673 c -24.71902,33.71087 -44.11289,60.521 -51.77826,71.57836 l -6.48089,9.34876 v 7.83703 c 0,8.92662 0.63977,10.93765 5.08681,15.98976 6.45762,7.33624 13.15274,9.55551 23.42862,7.76605 z M 200.2951,281.91914 c 0.99215,-0.37492 2.57582,-1.41806 3.51926,-2.3181 l 1.71534,-1.63642 v -45.28578 -45.28579 l -1.40346,-2.78316 -1.40347,-2.78316 h -28.59141 -28.59142 l -1.43896,1.67322 c -1.29011,1.50014 -1.48757,2.56479 -1.90881,10.29208 -0.50817,9.32177 0.11697,81.27595 0.73288,84.35551 0.51164,2.55819 2.88119,3.93906 7.71356,4.49515 6.06112,0.69748 47.49365,0.0938 49.65649,-0.72355 z m 152.10074,-21.52596 c 1.21446,-0.57631 3.73201,-2.69381 5.59454,-4.70557 3.01506,-3.25662 3.43478,-4.04478 3.82741,-7.1873 0.60444,-4.83778 -0.0795,-11.20831 -1.45636,-13.56587 -1.90941,-3.26937 -9.02602,-8.73883 -26.0248,-20.0013 -28.31021,-18.75683 -30.79345,-20.07072 -36.70706,-19.42166 -6.06953,0.66617 -8.45474,1.63359 -11.98688,4.86177 -4.9517,4.52557 -6.05384,7.28026 -5.78924,14.46962 0.34619,9.40589 0.98936,10.04139 29.22076,28.87201 17.53504,11.69605 24.52492,16.03234 28.06935,17.41332 2.91864,1.13716 12.25511,0.68722 15.25228,-0.73502 z M 252.15126,166.85555 c 15.26799,-3.5999 29.0616,-16.43202 34.18417,-31.80134 1.35779,-4.07378 1.72185,-6.54355 1.99988,-13.56683 l 0.33992,-8.58639 h 9.14917 9.14918 l 2.29786,-3.88432 c 5.66073,-9.568924 1.23768,-14.338704 -15.79124,-17.029129 -6.81952,-1.077424 -8.76197,-2.336539 -16.82521,-10.906254 -8.2174,-8.733578 -14.68877,-13.646206 -20.08828,-15.249687 -8.85825,-2.630614 -24.49708,-2.471004 -31.97362,0.326328 -7.76519,2.905329 -19.73401,14.460446 -24.02729,23.196781 -4.50231,9.161703 -6.81979,22.774341 -5.96088,35.013581 0.78997,11.25689 3.30107,17.5634 10.23587,25.70693 7.62589,8.95509 16.01242,14.75152 24.22044,16.74019 4.89565,1.18613 18.13203,1.20914 23.09003,0.0401 z"
   id="path2369" /><path
   id="path4601"
   style="fill:#ff0000;stroke:#f9f9f9;stroke-width:3.744;stroke-miterlimit:4;stroke-dasharray:none"
   d="M 255.31836 0.69726562 C 235.66115 0.61829744 214.95512 2.6129435 196.74414 6.546875 C 168.00052 12.756065 137.57852 26.11717 110.71875 44.330078 C 100.07902 51.544601 95.852225 54.972434 84.009766 65.986328 C 52.519635 95.273244 34.804765 119.94903 20.013672 155.12891 C 11.96843 174.26413 3.9961035 203.49412 2.4804688 219.41992 C 1.4507129 230.24025 0.98877851 268.72038 1.7851562 277.30664 C 4.8060236 309.87656 16.875701 347.24718 34.025391 377.12695 C 46.929346 399.60942 59.902286 415.49059 82.736328 436.76172 C 95.178884 448.35262 101.54905 453.54712 111.125 459.91016 C 147.69116 484.20768 179.80586 496.13852 224.86719 502.16797 C 236.90385 503.77855 268.76811 503.44041 282.88867 501.55273 C 313.68795 497.43538 338.33813 489.897 365.33594 476.33789 C 379.29663 469.3264 395.69982 459.06789 405.66211 451.11914 C 417.9024 441.35282 443.59392 414.9556 452.8457 402.63867 C 477.59335 369.69203 490.66084 339.78783 500 294.72852 C 501.51714 287.40868 501.71812 284.85817 502.06445 268.5293 C 502.27512 258.58029 502.27613 243.0015 502.06641 233.91016 C 501.71607 218.72328 501.52803 216.62174 499.75781 208.02539 C 490.46208 162.88443 475.1208 128.90292 449.49219 96.683594 C 442.53488 87.93713 420.29811 65.45712 408.875 55.623047 C 395.04576 43.717561 374.19783 31.213558 349.84961 20.222656 C 333.41451 12.803772 310.81607 6.4683444 288.80273 3.1074219 C 278.53043 1.5390806 267.11268 0.74464653 255.31836 0.69726562 z M 238.30273 66.921875 C 244.03801 66.763864 250.59808 67.268073 254.39648 68.273438 C 259.90648 69.731825 264.21949 72.842597 273.75391 82.236328 C 278.74695 87.155698 283.93839 91.745491 285.29102 92.435547 C 286.64365 93.125609 290.9942 94.363378 294.95898 95.185547 C 307.91993 97.873233 310.39967 100.11246 307.33398 106.36328 L 305.65625 109.78125 L 295.66992 109.78125 L 285.68359 109.78125 L 285.67773 115.55273 C 285.66576 129.04766 283.56827 137.2349 278.09961 145.13086 C 271.75961 154.28488 262.28858 161.23287 252.80078 163.69141 C 248.14533 164.89772 233.12947 164.94782 228.86523 163.77148 C 219.33786 161.14327 206.96972 150.56026 201.55664 140.4043 C 195.19389 128.46654 196.06203 105.47579 203.44336 90.458984 C 205.6254 86.019773 207.10424 84.10982 212.64844 78.566406 C 220.71554 70.500435 224.5097 68.399104 232.97461 67.306641 C 234.5702 67.100716 236.39098 66.974545 238.30273 66.921875 z M 248.54297 184.11133 C 249.87294 184.25375 250.70653 184.5973 251.9668 185.24023 C 255.56235 187.07455 260.69544 192.25667 263.13867 196.51758 L 265.08789 199.91602 L 265.09375 225.80273 C 265.0976 240.04011 265.28558 259.89814 265.51172 269.93164 L 265.92383 288.17383 L 279.95312 303.30273 C 297.80385 322.55247 309.15779 335.27241 311.08008 338.17383 C 315.26782 344.49464 320.38735 374.77467 321.04297 397.09766 L 321.41211 409.64453 L 319.46289 412.48047 C 316.96287 416.11411 312.93973 419.60893 309.43164 421.19531 C 307.09277 422.25297 305.74589 422.39855 300.63281 422.15234 C 293.20815 421.79482 290.10481 420.45784 285.81641 415.76562 C 282.34045 411.96236 281.15842 408.59278 278.58203 395.1543 C 271.80671 359.8142 272.30568 361.60814 267.52734 355.50195 C 264.51021 351.64638 250.02265 335.60172 247.00781 332.77734 C 245.02604 330.92076 245.00368 330.91627 244.13867 332.19531 C 242.85181 334.09813 230.68773 350.45881 207.06641 382.05469 C 185.68268 410.65756 178.30962 419.46181 173.77148 421.81836 C 170.40083 423.56865 161.25379 423.97048 157.35938 422.53906 C 154.00827 421.30733 148.92084 416.7496 146.72461 413.01367 C 145.18441 410.39369 145.00407 409.4356 144.80273 402.77734 L 144.58008 395.43164 L 147.89258 390.61328 C 154.05403 381.65426 173.49549 354.7612 197.20508 322.39648 L 220.80273 290.18555 L 221.29688 244.73828 C 221.85489 193.51522 221.39472 197.82126 227 191.46484 C 228.6789 189.56095 231.17722 187.22277 232.55273 186.26953 C 234.82336 184.69599 235.70663 184.50418 242.13672 184.1875 C 245.38592 184.02747 247.213 183.9689 248.54297 184.11133 z M 146.63477 184.62109 L 173.88086 184.7832 L 201.12695 184.94531 L 201.91797 186.50586 C 202.53922 187.73044 202.67758 197.62538 202.56055 232.5957 L 202.41016 277.12695 L 200.80469 278.32617 C 199.30039 279.44923 197.67987 279.54159 175.23047 279.7793 C 160.20578 279.9384 150.28824 279.79614 148.65234 279.39844 C 146.08144 278.77345 146.03639 278.71558 145.64844 275.51758 C 145.43184 273.73216 145.20403 253.18418 145.14062 229.85547 C 145.04906 196.18343 145.19091 187.15059 145.83008 186.03125 L 146.63477 184.62109 z M 297.45117 198.54883 C 301.27922 198.2279 301.95648 198.36626 305.66016 200.23047 C 310.12665 202.47863 336.89551 219.77184 346.1875 226.41211 C 355.89051 233.34611 357.83361 235.30592 358.61328 238.94141 C 359.45617 242.87179 359.46798 246.64852 358.64453 249.61328 C 357.76171 252.79177 352.09764 257.9226 348.88672 258.45312 C 344.91649 259.10913 339.13404 258.86415 337.03516 257.95117 C 332.22321 255.85806 296.8114 232.5428 288.9375 226.2832 C 284.20245 222.51894 283.09102 220.52882 282.70508 215.13477 C 282.34081 210.04362 283.25033 207.0905 286.18359 203.84375 C 289.19674 200.50855 292.48021 198.96558 297.45117 198.54883 z " /><path
   style="fill:#d40000;stroke:#f9f9f9;stroke-width:2.33537;stroke-miterlimit:4;stroke-dasharray:none"
   d="m 229.23267,500.44951 c -9.51421,-0.84643 -29.93475,-4.67886 -42.41584,-7.9604 -28.09654,-7.38718 -58.63497,-22.33088 -82.96039,-40.59589 C 92.135841,443.09268 68.510242,420.49201 58.606222,408.60607 32.32889,377.07029 13.919214,336.33763 5.8522727,291.88435 4.3370595,283.53469 4.1958728,281.21879 3.9207505,260.2013 3.4465798,223.97786 4.6491675,212.07436 11.177096,188.37624 22.617562,146.84429 40.228619,114.79388 67.763767,85.394005 75.592989,77.034572 89.627299,63.621372 97.321938,57.143975 112.21558,44.606413 137.726,29.610535 159.05941,20.852636 180.43994,12.07539 200.62611,7.0348263 225.4901,4.2646403 c 11.60257,-1.2926843 48.32786,-1.0983372 58.32178,0.308634 22.17417,3.1217397 46.57046,9.6496897 63.39428,16.9630197 20.59026,8.950607 43.25842,22.126639 56.99186,33.126936 6.55224,5.248251 32.60367,30.866081 39.55956,38.901126 25.85464,29.865784 42.6198,64.896434 52.83868,110.405944 2.34375,10.43779 2.48014,11.65339 3.11429,27.75742 0.96546,24.51773 -0.0389,54.03652 -2.17858,64.02894 -9.32511,43.54898 -22.58572,73.69485 -46.19229,105.01067 -9.13206,12.11433 -36.76343,40.4865 -47.76542,49.046 -6.32513,4.92092 -19.13584,13.38188 -27.69493,18.29138 -31.47386,18.05343 -68.45331,29.5905 -102.98329,32.12933 -8.0197,0.58965 -37.80518,0.73663 -43.66337,0.21547 z m -56.6924,-75.96516 c 6.39537,-1.89923 9.93077,-6.04677 44.45337,-52.15047 14.27899,-19.06908 26.53028,-35.45855 27.22509,-36.42103 l 1.26327,-1.74997 8.13623,8.97549 c 12.05362,13.29697 15.12724,17.24407 16.2086,20.8149 0.52146,1.72199 2.74009,12.11307 4.93027,23.09128 2.19018,10.97822 4.6097,21.59697 5.37671,23.59722 1.8159,4.73559 5.92292,9.25372 10.41308,11.4554 3.11798,1.52885 4.42051,1.77195 10.55176,1.9693 6.16591,0.19847 7.32348,0.066 9.76959,-1.11815 3.71345,-1.79766 7.79407,-5.47342 10.6015,-9.54969 l 2.30378,-3.34498 -0.63398,-13.06395 c -1.28534,-26.48613 -5.49087,-51.45026 -9.98384,-59.26433 -1.94735,-3.38679 -11.01963,-13.71828 -31.4163,-35.77681 l -13.39895,-14.49064 -0.35665,-8.21659 c -0.19615,-4.51911 -0.52033,-24.49678 -0.72038,-44.3948 l -0.36374,-36.17821 -1.63152,-2.80693 c -2.64673,-4.55353 -6.3975,-8.62323 -10.42916,-11.31596 l -3.77464,-2.52106 -8.10891,0.21306 c -7.49639,0.19697 -8.32645,0.34095 -10.98876,1.90605 -3.10429,1.82493 -8.75035,7.63002 -10.25959,10.54856 -1.74607,3.37653 -2.10542,10.85255 -2.52974,52.62974 l -0.42448,41.79208 -21.64123,29.62871 c -24.71454,33.83634 -42.31523,58.1511 -49.7725,68.75905 l -5.14478,7.31844 0.38562,7.02809 c 0.21209,3.86545 0.64452,8.06322 0.96096,9.32837 1.12417,4.49459 8.62052,12.10974 13.33529,13.54661 3.0045,0.91566 12.25127,0.7747 15.66403,-0.23878 z m 29.4028,-144.37903 2.65099,-1.51326 v -45.40717 c 0,-40.26902 -0.11354,-45.69093 -1.00337,-47.91484 l -1.00337,-2.50767 h -28.8371 -28.8371 l -0.85896,1.71534 c -0.68884,1.37563 -0.89945,8.26273 -1.06346,34.77476 -0.11248,18.18267 0.0225,38.99909 0.29992,46.25871 0.55057,14.40686 0.82487,15.39434 4.44996,16.02028 0.90778,0.15675 12.87823,0.24047 26.601,0.18605 l 24.9505,-0.0989 z m 149.49818,-20.24768 c 3.03365,-1.26754 7.23959,-5.2847 8.55344,-8.16952 1.3075,-2.8709 1.56281,-10.38912 0.48465,-14.27213 -1.29841,-4.67628 -8.91155,-10.6469 -35.18352,-27.59279 -18.7985,-12.12536 -21.17459,-13.33805 -26.13387,-13.33805 -5.45997,0 -9.65945,1.40927 -13.02355,4.37047 -4.0516,3.56636 -5.44533,6.78493 -5.44533,12.57497 0,8.05406 1.42101,10.54112 9.35643,16.37566 11.36288,8.35458 37.60937,25.61874 44.59321,29.33209 2.60224,1.38362 3.77209,1.59433 8.85142,1.59433 3.61128,0 6.65495,-0.33513 7.94712,-0.87503 z m -97.56996,-94.23556 c 11.47338,-3.03552 23.27908,-12.9598 28.95424,-24.3399 3.27713,-6.57146 4.19873,-10.76106 4.56225,-20.7401 l 0.3238,-8.88861 h 9.81646 9.81644 l 1.6446,-3.66464 c 1.86719,-4.16066 2.04111,-6.23449 0.73471,-8.760786 -1.22306,-2.36512 -4.67568,-3.869429 -14.29003,-6.226153 -4.41465,-1.082146 -8.50787,-2.225091 -9.09604,-2.539867 -0.58817,-0.314781 -5.11629,-4.386147 -10.06247,-9.047473 -15.86018,-14.946769 -18.68591,-16.237471 -35.50297,-16.216568 -9.78285,0.01216 -11.3313,0.162103 -14.91858,1.444577 -2.2015,0.787057 -5.28912,2.309986 -6.86138,3.384292 -4.4216,3.021218 -13.27428,12.20774 -15.76956,16.364237 -8.15126,13.577935 -10.46941,37.513211 -5.02023,51.834541 4.27226,11.22817 19.44812,25.07132 30.40638,27.73616 3.57601,0.86962 21.60799,0.62714 25.26238,-0.33971 z"
   id="path4870" /><path
   style="fill:#d40000;stroke:#b72c2c;stroke-width:2.33537;stroke-miterlimit:4;stroke-dasharray:none;stroke-opacity:1"
   d="M 221.43564,497.99169 C 179.87993,491.70964 146.83475,479.13666 113.83663,457.05256 103.60791,450.20696 97.114537,444.79427 81.401888,430.01588 55.554464,405.70534 38.792392,382.03817 25.080962,350.49368 16.455385,330.6497 8.6137278,303.10634 6.2740893,284.43564 5.4019387,277.47574 5.3955152,231.10611 6.2653895,221.63398 8.6266654,195.92185 20.59239,158.78327 34.675683,133.4556 47.54766,110.30639 62.206663,91.916744 84.519802,70.926392 97.913009,58.327171 102.75858,54.406215 114.77228,46.44659 143.21309,27.603244 171.78209,15.530154 202.41089,9.4110326 c 19.6271,-3.9211666 21.95709,-4.1093459 50.83663,-4.1057692 28.82686,0.00357 29.79971,0.085204 48.96535,4.1087692 20.94429,4.3969674 36.72084,9.7478954 55.08085,18.6817564 17.55163,8.540501 31.37972,16.819551 44.09737,26.401631 6.85989,5.168571 40.74766,39.121709 47.08501,47.17585 20.00839,25.42864 34.58238,55.64273 43.62709,90.44554 5.54477,21.3355 6.26265,28.1228 6.26753,59.25743 0.005,30.67445 -0.8145,39.04999 -5.70512,58.32178 -8.82929,34.79232 -22.17477,63.18718 -41.92274,89.19802 -11.13018,14.66 -41.13905,44.83103 -52.80629,53.09164 -37.06734,26.24434 -78.7061,42.22 -120.89622,46.38459 -9.85885,0.97317 -48.3944,0.70941 -55.60471,-0.38058 z m -48.17821,-72.28755 c 6.54162,-1.94266 11.81554,-8.16644 48.35206,-57.06058 12.68987,-16.98193 23.28014,-31.10744 23.53391,-31.39002 0.50531,-0.56268 3.53911,2.53203 12.73337,12.98903 10.16904,11.56567 9.98316,11.19103 13.17686,26.55782 4.74297,22.8212 7.15501,33.16748 8.37579,35.92724 1.68718,3.81416 6.47141,8.64426 10.5424,10.64349 3.13045,1.53735 4.32347,1.74642 11.07508,1.94097 6.54886,0.18871 7.95155,0.0478 10.42758,-1.04747 3.31388,-1.46588 8.22368,-5.8649 11.44739,-10.25646 l 2.24717,-3.06126 -0.42227,-10.30225 c -1.2189,-29.73855 -5.71415,-56.38419 -10.87078,-64.43673 -2.2808,-3.56167 -13.14644,-15.94391 -30.1548,-34.36375 -7.32611,-7.93409 -13.52686,-14.78426 -13.77944,-15.22259 -0.25259,-0.43834 -0.73738,-20.62111 -1.07732,-44.8506 l -0.61808,-44.05363 -2.20124,-3.44111 c -3.18568,-4.98002 -6.70507,-8.5727 -11.11205,-11.34348 l -3.8687,-2.43235 -8.4208,0.38269 c -9.75541,0.44334 -10.83317,0.84878 -16.42028,6.17696 -5.24175,4.99883 -6.57558,7.58105 -7.33133,14.1931 -0.34728,3.03824 -0.85806,23.93365 -1.13507,46.43425 l -0.50367,40.91018 -5.91116,8.05516 c -15.06456,20.52854 -44.4623,60.99136 -56.77543,78.14523 l -13.59632,18.94155 0.005,4.13766 c 0.009,7.5622 1.08886,14.36936 2.72263,17.15718 2.03162,3.4667 7.85113,8.89048 11.14168,10.38404 3.40528,1.54564 13.64081,1.70443 18.41808,0.28573 z m 29.45603,-144.23137 3.11015,-1.71534 0.009,-45.88927 c 0.008,-39.50599 -0.12452,-46.33884 -0.95082,-49.12128 l -0.9598,-3.23203 h -30.17994 -30.17994 l -0.82807,2.33911 c -1.23422,3.48636 -1.20791,89.4341 0.0289,94.2507 1.32819,5.17269 0.46315,5.0306 30.79868,5.05904 l 26.04176,0.0244 3.11014,-1.71534 z m 150.02416,-20.66241 c 3.32645,-1.52311 8.14781,-6.78996 8.98901,-9.81956 0.36979,-1.33182 0.67392,-4.83341 0.67583,-7.78131 0.004,-6.88723 -1.30256,-9.51488 -7.21502,-14.50509 -7.25032,-6.11938 -41.56884,-28.72472 -48.52822,-31.96516 -2.41564,-1.12476 -4.27832,-1.49092 -7.60789,-1.49552 -6.80775,-0.009 -10.37245,1.3298 -14.63029,5.49642 -4.41801,4.32334 -5.21384,6.75539 -4.86069,14.85415 0.4027,9.23513 1.17972,10.03921 25.45945,26.34627 16.25733,10.91895 27.12795,17.81788 30.13959,19.1278 3.09975,1.34823 14.43358,1.18188 17.57823,-0.258 z m -94.63798,-95.00577 c 6.73205,-2.7925 10.85416,-5.61834 16.66353,-11.4234 9.84715,-9.83987 13.21859,-17.69038 13.9296,-32.43565 l 0.42109,-8.73267 9.76415,-0.17147 9.76414,-0.17148 1.61952,-4.04548 c 2.82451,-7.05551 1.87461,-11.058495 -3.22898,-13.607363 -1.6217,-0.809918 -6.45719,-2.394393 -10.74556,-3.521057 -4.28837,-1.126665 -8.33412,-2.324401 -8.99056,-2.661626 -0.65644,-0.33723 -4.58615,-3.755716 -8.73268,-7.596627 -17.42779,-16.143303 -20.94551,-17.771659 -38.45676,-17.801649 -14.23146,-0.02437 -19.47098,2.054394 -29.03646,11.52015 -7.6203,7.540857 -10.22154,11.365269 -12.98035,19.084085 -3.21137,8.985007 -4.33449,17.002887 -3.91389,27.940937 0.38813,10.09353 1.35547,14.60707 4.3322,20.21368 5.28263,9.94975 18.37966,21.355 28.196,24.55386 1.83424,0.59772 5.95181,0.77668 15.00329,0.65207 11.81828,-0.16269 12.6815,-0.25729 16.39172,-1.79631 z"
   id="path4983" /><path
   style="fill:#d40000;stroke:#b72c2c;stroke-width:2.33537;stroke-miterlimit:4;stroke-dasharray:none;stroke-opacity:1"
   d="m 232.97525,497.14915 c -20.63174,-0.84524 -47.39158,-6.97362 -71.10891,-16.28493 -15.79002,-6.19909 -40.33529,-19.71011 -53.51779,-29.45903 C 95.737295,442.07873 69.060694,416.47591 59.161508,404.19802 37.475923,377.30155 22.573829,346.98256 13.128496,310.54176 8.4512163,292.49647 7.6332423,286.32788 7.1853608,265.72277 6.6828799,242.60577 7.5475517,220.00015 9.3129185,210.10079 13.398138,187.19275 22.7834,159.63516 33.600139,138.78713 45.313001,116.21192 57.234395,100.43128 78.84629,78.893671 c 16.412373,-16.355953 23.05,-22.001588 35.92599,-30.55685 31.67095,-21.043301 60.44184,-32.66448 97.53249,-39.3954613 8.35222,-1.5157098 10.25363,-1.6163635 35.92449,-1.9017118 29.93302,-0.3327247 35.30972,-0.00815 49.90988,3.0129021 25.05193,5.183721 40.81004,10.590691 62.39551,21.409334 15.80436,7.921142 28.72921,15.733842 39.60891,23.942443 4.83946,3.65131 41.9704,40.782963 46.89746,46.898363 16.06685,19.94195 30.12014,46.788 39.08202,74.65858 3.15239,9.80363 7.37659,26.31265 8.8261,34.49418 2.74552,15.49665 2.54734,65.92028 -0.32361,82.33663 -3.88392,22.20858 -13.99683,51.92276 -24.36679,71.59544 -12.05163,22.86299 -24.02886,38.50633 -47.43914,61.95985 -14.39474,14.42133 -22.62097,21.49732 -32.7662,28.18464 -33.61058,22.15473 -69.75467,35.89082 -106.86528,40.61276 -8.9322,1.13654 -34.50254,1.648 -50.21287,1.00438 z m -59.17723,-70.17279 c 6.6284,-1.96842 12.12714,-8.40676 48.33313,-56.59202 12.70614,-16.91015 23.30093,-30.81911 23.54397,-30.9088 0.46718,-0.17239 11.53563,11.97813 16.33377,17.93058 1.55959,1.9348 3.4287,4.90386 4.15358,6.59792 0.72487,1.69407 2.90535,10.51848 4.8455,19.60982 6.45372,30.24142 6.97793,31.74535 12.94383,37.13595 5.24804,4.74197 7.54619,5.52017 17.10086,5.79069 7.08109,0.20049 8.56833,0.0675 10.93115,-0.97773 3.18801,-1.41021 9.55566,-7.11421 12.59777,-11.28481 2.39789,-3.28739 2.32018,-1.44459 0.97751,-23.17895 -1.47844,-23.93215 -5.08948,-44.53938 -9.34539,-53.33168 -2.05897,-4.25362 -8.07461,-11.35677 -29.76887,-35.15048 l -14.98724,-16.43761 -0.38665,-8.201 c -0.21266,-4.51056 -0.61702,-24.54511 -0.89856,-44.52123 l -0.5119,-36.32021 -2.36384,-3.56021 c -3.39862,-5.11868 -7.31552,-9.09702 -11.89259,-12.0791 l -3.99495,-2.60281 -7.34564,0.41886 c -11.36479,0.64802 -13.2135,1.35926 -19.26651,7.41228 -7.03016,7.03016 -7.06737,7.17392 -7.7737,30.03161 -0.30743,9.94901 -0.73678,30.10116 -0.95411,44.78256 l -0.39516,26.69346 -7.82787,10.73228 c -21.28488,29.18232 -43.60705,59.92911 -55.2986,76.16888 l -12.98087,18.03064 0.32505,8.16738 c 0.19397,4.87402 0.73097,9.46342 1.33175,11.38152 1.56517,4.99712 8.88965,12.49392 13.9845,14.3135 3.19748,1.14194 14.67869,1.11027 18.59008,-0.0513 z m 30.03832,-144.44304 3.29675,-1.8906 -0.19966,-47.84859 c -0.16194,-38.80968 -0.36262,-48.29046 -1.06229,-50.18769 l -0.86263,-2.33911 h -31.29069 -31.29069 l -0.78886,2.33911 c -1.02885,3.05067 -1.65164,69.82727 -0.80268,86.0635 0.68407,13.08268 1.03666,14.08876 5.26964,15.03624 1.46415,0.32772 14.31086,0.62329 28.54824,0.65681 l 25.88613,0.0609 3.29674,-1.89061 z m 148.24187,-19.99537 c 3.36329,-0.93377 9.95171,-7.5222 10.88548,-10.88549 0.89458,-3.22214 0.88223,-12.61425 -0.0202,-15.30938 -1.80611,-5.39439 -6.67313,-9.44794 -29.54257,-24.60488 -26.25003,-17.39745 -27.98941,-18.21751 -37.36403,-17.61589 -5.5674,0.35729 -9.87084,2.50802 -13.8304,6.91199 -3.2797,3.64783 -4.00048,5.95929 -4.00506,12.84383 -0.006,9.20175 1.65833,12.04779 11.08415,18.95276 11.10968,8.1385 40.27794,27.19621 44.7391,29.23126 2.91419,1.32937 13.93306,1.61977 18.05346,0.4758 z m -98.13612,-94.11822 c 10.92733,-2.01602 25.75174,-14.21618 31.45896,-25.89003 2.69872,-5.52012 3.95015,-10.42901 4.37292,-17.15346 0.18334,-2.91609 0.47208,-6.45625 0.64165,-7.86702 l 0.30831,-2.56503 9.48704,-0.45099 c 5.21788,-0.24805 9.57378,-0.5372 9.67977,-0.64255 0.85053,-0.84534 3.21386,-9.31864 3.22248,-11.55362 0.0231,-5.985481 -3.27891,-8.334776 -17.13797,-12.193282 l -8.10891,-2.257602 -9.30576,-8.374185 c -10.59113,-9.530889 -15.89293,-13.364367 -21.2586,-15.371072 -3.43105,-1.283178 -4.80696,-1.399686 -16.5297,-1.399686 -11.53675,0 -13.13284,0.13022 -16.32252,1.331704 -5.19854,1.958172 -8.82143,4.642894 -15.89644,11.779983 -5.4038,5.451215 -6.75526,7.244738 -9.21245,12.225867 -4.20135,8.516814 -6.02317,16.271023 -6.4275,27.357283 -0.37109,10.17465 0.4602,18.26578 2.41282,23.48462 4.22644,11.29618 19.32931,25.66261 30.78767,29.28641 3.0632,0.96876 22.96726,1.14947 27.82823,0.25266 z"
   id="path5059" /><path
   style="fill:#d40000;stroke:#b72c2c;stroke-width:2.33537;stroke-miterlimit:4;stroke-dasharray:none;stroke-opacity:1"
   d="M 225.4901,495.22888 C 210.65399,493.70521 191.37697,489.402 175.02874,483.96438 163.1784,480.02281 157.56288,477.6859 145.79433,471.79837 126.91003,462.35101 113.28041,453.778 101.43654,443.89739 91.139006,435.30681 64.91632,409.10059 58.643068,401.13079 37.741412,374.57648 22.888218,343.4406 13.820978,307.17286 9.5817724,290.2166 9.2469687,286.98456 8.9030312,259.69723 8.4573175,224.33518 9.3427223,213.7255 14.360431,194.30198 21.453694,166.844 32.339688,141.42365 46.014108,120.38614 55.234807,106.20048 65.510898,94.211229 83.972974,76.09901 97.138035,63.183425 103.16614,58.048468 113.21287,51.191423 c 30.91194,-21.097867 61.09492,-33.584862 98.24258,-40.643917 6.25296,-1.1882313 10.21426,-1.4150451 30.87623,-1.7678938 37.72811,-0.6442905 46.79105,0.127894 69.86139,5.9523648 26.39061,6.662723 57.78103,21.277215 82.17126,38.256616 7.80739,5.435157 48.64851,46.124429 55.35911,55.153277 16.69825,22.46684 30.3773,51.48809 38.68422,82.07179 5.90484,21.73995 6.8544,29.99636 6.85492,59.60317 5.4e-4,31.08286 -0.99092,41.5391 -5.64836,59.56931 -7.94648,30.76293 -20.74311,59.15293 -36.66069,81.33365 -8.90379,12.40719 -29.49304,34.81453 -44.38917,48.30888 -26.1863,23.72206 -66.76028,43.7574 -105.72773,52.20811 -16.86407,3.65724 -21.8982,4.11623 -47.71782,4.35063 -13.20817,0.11991 -26.54109,-0.0414 -29.62871,-0.35853 z m -49.27723,-67.63284 c 6.0089,-2.85033 13.18936,-11.44711 47.09406,-56.38319 12.17896,-16.14156 22.34186,-29.35791 22.58422,-29.36967 0.71001,-0.0345 13.66437,14.70686 16.51111,18.78871 2.80834,4.02679 3.71565,7.16974 8.61518,29.84336 4.74932,21.97851 6.18815,25.76989 11.79045,31.06831 5.43444,5.13967 7.78226,5.941 18.28649,6.24137 8.25758,0.23612 9.0639,0.15552 11.82747,-1.1823 3.89973,-1.88783 12.27111,-9.93401 13.9554,-13.41328 1.29661,-2.67843 1.313,-3.04631 0.62978,-14.13552 -2.17851,-35.35918 -6.07213,-56.57636 -11.95287,-65.13378 -2.84325,-4.13739 -11.30067,-13.86973 -28.28291,-32.54642 l -14.37521,-15.80954 -0.38119,-10.38848 c -0.20966,-5.71366 -0.60054,-25.68625 -0.86862,-44.38353 l -0.48742,-33.99505 -2.52789,-3.74257 c -3.58157,-5.30259 -8.00831,-9.81086 -12.51922,-12.74984 -3.68078,-2.39812 -4.13832,-2.53234 -8.63233,-2.53234 -7.39822,0 -14.12369,1.143 -17.49778,2.97377 -1.64651,0.89339 -4.9292,3.66197 -7.29486,6.15239 -3.31711,3.49205 -4.52938,5.28516 -5.29847,7.83709 -1.25165,4.15309 -2.05087,22.96389 -2.69803,63.50209 l -0.473,29.62872 -19.57808,26.82178 c -10.76794,14.75198 -27.89622,38.3302 -38.06284,52.39604 l -18.48475,25.57426 0.43484,8.42079 c 0.65647,12.71276 1.80405,15.61478 8.77994,22.20292 5.77974,5.45847 7.10695,5.87622 17.99069,5.66266 6.73252,-0.1321 8.92102,-0.4025 10.91584,-1.34875 z m 28.6887,-143.9401 3.53858,-2.02723 -0.26811,-48.96534 c -0.21039,-38.42554 -0.44546,-49.46884 -1.09205,-51.30446 l -0.82395,-2.33911 h -32.58066 -32.58065 l -0.82686,3.27475 c -0.64792,2.56606 -0.83012,12.99405 -0.84192,48.18565 -0.0158,47.22949 0.16195,50.63975 2.7626,52.99331 1.96693,1.78005 6.32304,2.06044 33.18849,2.13629 l 25.98596,0.0734 z m 147.72731,-19.85028 c 3.37614,-0.9375 10.6474,-8.16153 11.57385,-11.49869 0.91252,-3.28699 0.89075,-13.55441 -0.0353,-16.64528 -1.56175,-5.21264 -7.70038,-10.34785 -30.30462,-25.35099 -24.66278,-16.36945 -27.86632,-17.88671 -36.85842,-17.45679 -6.95834,0.33268 -11.16947,2.23717 -15.55362,7.03412 -3.94193,4.3131 -4.72328,7.06471 -4.38252,15.43338 0.4631,11.37312 1.56817,12.52483 30.27132,31.54893 18.24469,12.09235 25.30366,16.40207 27.86916,17.01497 2.99146,0.71467 14.75328,0.66088 17.42015,-0.0797 z m -93.63821,-95.29692 c 8.72124,-3.4545 20.72868,-13.62121 25.62198,-21.69416 4.35948,-7.19226 5.94949,-13.06278 7.00588,-25.86667 l 0.39109,-4.74022 8.66329,-0.37051 c 4.76481,-0.20379 9.20308,-0.65941 9.86284,-1.0125 1.43863,-0.76994 3.84167,-9.03051 3.83815,-13.19389 -0.005,-5.984926 -4.08593,-8.912673 -17.95465,-12.88118 l -7.88901,-2.257421 -7.50522,-6.72555 C 261.14047,61.947773 258.26277,60.720913 237.65347,61.2759 c -9.21816,0.248235 -11.44941,0.501967 -14.34654,1.631451 -4.70923,1.835954 -10.75308,6.535496 -17.16574,13.347631 -4.22742,4.490764 -5.99218,6.959086 -8.15673,11.408582 -4.37327,8.98977 -5.92753,16.051716 -6.30956,28.668116 -0.50371,16.63454 1.34223,24.14964 8.13702,33.12707 6.86899,9.07545 19.01784,18.34303 26.44819,20.17562 1.29184,0.31862 8.3837,0.51297 15.75969,0.43189 12.26124,-0.13476 13.71608,-0.26829 16.97087,-1.55752 z"
   id="path5098" /><path
   style="fill:#d40000;stroke:#b72c2c;stroke-width:2.33537;stroke-miterlimit:4;stroke-dasharray:none;stroke-opacity:1"
   d="m 219.56436,493.02423 c -18.04348,-2.62329 -39.72724,-8.3357 -55.65566,-14.66202 -20.71327,-8.22674 -45.9517,-22.75861 -60.67603,-34.93626 -8.474769,-7.009 -39.663905,-38.28218 -44.721275,-44.84179 -16.030888,-20.7927 -28.607676,-44.9776 -37.5253,-72.16037 -3.725225,-11.35526 -7.234561,-24.68087 -8.843088,-33.57889 -1.345212,-7.44141 -2.2544661,-43.55551 -1.538763,-61.11718 0.635092,-15.58366 1.737937,-23.51778 5.072138,-36.4901 C 24.811491,159.69581 40.01347,128.26509 59.572683,104.4802 70.647916,91.012214 92.865025,68.694946 104.16207,59.689793 118.53239,48.234853 142.1568,34.564084 160.88588,26.86535 c 16.01642,-6.583673 38.65091,-13.005974 53.91153,-15.296831 8.73417,-1.311136 51.96486,-1.9881189 64.28058,-1.00662 26.14336,2.083488 52.94634,10.091147 81.59991,24.378797 19.35363,9.65038 31.47351,17.558034 42.38465,27.653993 9.86419,9.127218 39.16485,38.783011 43.54096,44.068681 4.11992,4.97623 12.29986,17.43887 17.13212,26.10184 14.15927,25.38383 26.47009,61.98673 28.98378,86.17538 1.79428,17.26604 1.28771,58.36937 -0.89704,72.78605 -2.13692,14.10103 -9.08778,37.69923 -15.85925,53.84221 -8.39631,20.01656 -20.20574,40.04917 -31.76072,53.87647 -13.00341,15.56057 -30.27275,33.23175 -42.49943,43.48836 -20.06955,16.83575 -51.86071,33.25654 -81.95954,42.33378 -12.93164,3.89994 -29.60745,7.28797 -39.92065,8.11068 -11.91271,0.95032 -52.94532,0.70932 -60.25842,-0.35391 z m -42.30133,-64.40394 c 5.91311,-2.86248 12.8844,-11.25241 50.0945,-60.28861 8.85125,-11.66435 16.70508,-21.94363 17.45294,-22.84282 l 1.35976,-1.63492 5.22573,5.89778 c 11.99402,13.53647 12.20562,13.97457 16.80716,34.79778 6.28767,28.45347 7.62957,32.17278 13.695,37.95822 5.73285,5.4682 7.88057,6.1982 19.18363,6.52036 8.91437,0.25408 9.64985,0.18501 12.47525,-1.17155 4.14163,-1.98851 14.08463,-11.96182 15.15308,-15.19927 0.91258,-2.76514 0.62836,-11.38649 -0.96778,-29.35528 -2.08369,-23.45757 -5.21195,-39.07048 -9.52041,-47.51577 -2.3084,-4.52483 -11.75143,-15.59501 -34.76181,-40.75167 l -8.84808,-9.67339 -0.39604,-4.98503 c -0.21783,-2.74177 -0.68787,-22.80904 -1.04454,-44.59394 l -0.64848,-39.60891 -2.3085,-3.40076 c -3.4184,-5.03578 -8.61114,-10.41627 -12.87953,-13.34517 -3.70695,-2.54366 -3.88643,-2.59462 -9.88436,-2.80595 -6.7395,-0.23746 -13.1345,0.64502 -16.98566,2.34394 -2.97684,1.31322 -9.64216,7.32811 -12.13408,10.95 -0.97225,1.41311 -2.06364,3.67993 -2.42531,5.03738 -1.03203,3.87344 -1.88056,23.34578 -2.58676,59.36188 l -0.65081,33.19083 -25.11006,34.48739 c -13.81052,18.96806 -30.94417,42.55007 -38.07478,52.40444 l -12.96473,17.91706 0.40354,6.72156 c 0.82331,13.71348 2.06418,17.51961 7.60782,23.33567 7.15434,7.50591 8.75438,8.11059 20.77484,7.85111 7.87433,-0.16997 9.43023,-0.37845 11.95847,-1.60236 z m 28.57855,-143.78618 3.4307,-2.04802 -0.0162,-49.23215 c -0.0127,-38.74275 -0.19208,-49.92988 -0.84192,-52.50691 l -0.82576,-3.27475 H 173.71782 139.8472 l -0.84192,3.27475 c -0.66886,2.60163 -0.84191,12.57033 -0.84191,48.49752 0,24.87253 0.23335,46.85789 0.51857,48.85637 0.72213,5.05989 2.71708,7.21622 7.28894,7.87861 1.88112,0.27254 15.34966,0.51962 29.93011,0.54906 l 26.5099,0.0535 3.43069,-2.04802 z m 150.42703,-21.44212 c 3.89124,-2.70226 8.51475,-8.07606 9.26475,-10.76823 0.84973,-3.05018 0.76664,-14.63183 -0.12637,-17.61244 -0.99742,-3.3291 -5.05201,-7.69701 -11.94656,-12.86974 -9.73003,-7.3001 -35.82144,-24.28321 -42.07218,-27.38513 l -5.94366,-2.94952 -7.22972,0.009 c -6.05865,0.008 -7.70214,0.22616 -10.14623,1.34787 -3.69278,1.69481 -8.22353,5.85036 -10.38251,9.52273 -1.58961,2.7039 -1.67128,3.25429 -1.67128,11.26361 0,8.03614 0.0773,8.55233 1.69299,11.30063 0.93113,1.58391 3.27965,4.32996 5.2189,6.10234 5.75818,5.26265 45.65086,31.61678 50.78613,33.55063 1.51355,0.56997 4.86167,0.77377 10.91584,0.66447 8.72177,-0.15748 8.73631,-0.1602 11.6399,-2.17658 z M 260.1805,169.55623 c 11.41192,-5.2718 22.74357,-15.81764 27.63635,-25.71986 2.5208,-5.10169 3.82803,-10.35117 4.90763,-19.70766 l 0.75572,-6.5495 7.60154,-0.39028 c 9.4497,-0.48516 10.55701,-0.76225 11.67343,-2.92117 1.44939,-2.80281 2.86859,-9.08385 2.86859,-12.69567 0,-6.684066 -4.6189,-10.12328 -19.20974,-14.303511 l -7.04637,-2.018757 -6.36452,-5.674516 C 269.47547,67.514231 265.07665,64.297403 258.5495,61.69254 c -3.57221,-1.425602 -4.39564,-1.492964 -18.0891,-1.479813 -13.35905,0.01283 -14.58268,0.109139 -17.77723,1.399189 -4.78129,1.930817 -10.77949,6.621956 -17.36698,13.582551 -4.42065,4.671032 -6.21747,7.150425 -8.46584,11.681891 -4.42583,8.919995 -5.99299,16.041122 -6.41362,29.143442 -0.64484,20.0863 1.78834,27.68551 12.5137,39.08223 7.45202,7.91849 16.54262,14.25993 22.61311,15.7745 1.33188,0.33229 8.87755,0.5352 16.76814,0.45089 13.96647,-0.14923 14.43932,-0.19615 17.84882,-1.77119 z"
   id="path5137" /><path
   style="fill:#d40000;stroke:#b72c2c;stroke-width:2.33537;stroke-miterlimit:4;stroke-dasharray:none;stroke-opacity:1"
   d="m 232.0396,492.11579 c -7.24383,-0.24915 -15.19497,-0.88688 -18.34149,-1.47109 C 182.2808,484.81154 158.04977,475.99727 131.61386,460.7858 112.07989,449.54578 105.00625,443.81486 81.076571,419.84158 63.803102,402.53664 59.97495,398.36095 55.289676,391.71361 41.116528,371.60514 31.417308,352.35765 23.139281,327.91315 18.590979,314.4823 13.947832,296.12584 13.08859,288.17822 c -1.046763,-9.68212 -1.501527,-50.72403 -0.692387,-62.48711 0.817291,-11.88155 1.789621,-18.16695 4.512885,-29.17248 8.119829,-32.8147 23.911216,-66.14235 42.158101,-88.9745 10.420524,-13.039102 33.381126,-36.379437 45.132121,-45.87855 14.67333,-11.861423 39.08962,-26.019183 58.29079,-33.799846 14.09285,-5.71068 34.48259,-11.648254 48.96535,-14.258902 6.37106,-1.148443 10.40694,-1.327112 36.08882,-1.597666 35.12089,-0.369993 43.71609,0.366977 63.12134,5.412149 27.2349,7.080802 61.48552,23.050953 81.34473,37.928877 12.23229,9.164061 50.65899,47.870148 57.97546,58.396948 16.28732,23.43394 28.9092,51.50119 36.60102,81.38964 4.58559,17.81844 5.04899,21.93566 5.39536,47.93778 0.5634,42.29365 -1.11532,54.93481 -11.33604,85.36366 -9.96038,29.65375 -23.52533,53.84535 -42.64259,76.04846 -7.62468,8.85543 -32.48207,33.59126 -38.79563,38.60591 -24.18089,19.20608 -59.03301,35.91546 -91.31775,43.78105 -22.10621,5.38579 -38.57795,6.52417 -75.85057,5.24215 z m -54.69825,-61.91004 c 5.72151,-2.46682 13.26979,-11.37466 46.76741,-55.19092 11.87741,-15.53616 21.79946,-28.30769 22.04899,-28.38119 0.24954,-0.0735 3.20906,3.05341 6.57672,6.94869 8.67275,10.03153 9.63607,12.24753 14.54629,33.46222 6.19114,26.74897 7.36809,29.99026 12.98418,35.75814 6.15914,6.3256 10.00399,7.59335 23.02922,7.59335 10.29281,0 11.70679,-0.60762 19.51098,-8.38426 7.89173,-7.86389 8.06067,-8.31523 7.59253,-20.28377 -1.12713,-28.81658 -5.54039,-55.92347 -10.79225,-66.2875 -2.49934,-4.93221 -10.49477,-14.38276 -33.99103,-40.17714 l -9.73947,-10.69209 -0.39042,-10.82772 c -0.68891,-19.10606 -1.0084,-53.30861 -0.47904,-51.28382 1.10572,4.22942 4.82134,8.50058 12.23711,14.06672 4.59662,3.45015 27.46371,18.69178 36.80198,24.52968 9.39793,5.8752 10.0635,6.06029 20.89604,5.81068 8.35168,-0.19244 9.2118,-0.32341 11.22773,-1.70971 3.29492,-2.26584 6.74959,-5.6605 8.94616,-8.79077 1.94199,-2.76748 1.97269,-2.92657 2.18395,-11.3178 0.18687,-7.42298 0.0563,-8.8679 -1.02131,-11.30407 -2.52604,-5.71052 -8.68882,-10.98419 -27.26227,-23.32909 -14.94213,-9.93132 -23.34998,-15.14701 -28.97466,-17.97401 l -4.64792,-2.33608 -7.51545,0.26598 c -5.87958,0.20809 -8.15026,0.5509 -10.43194,1.57494 -5.37555,2.41261 -12.36567,10.18098 -12.36567,13.74243 0,0.82389 -0.27514,1.30405 -0.62376,1.08859 -0.34307,-0.21203 -0.62377,-2.82875 -0.62377,-5.81495 0,-5.18593 -0.0993,-5.57684 -2.21356,-8.71638 -3.14019,-4.66291 -9.68023,-11.42616 -13.77912,-14.24939 l -3.49518,-2.4074 -7.25359,-0.20712 c -13.03365,-0.37216 -18.63179,1.64943 -26.09762,9.42432 -4.89676,5.09946 -6.34962,8.06005 -7.05113,14.36852 -0.74597,6.70817 -1.71108,34.17929 -2.24503,63.90262 l -0.42869,23.86457 -33.665,46.30869 c -18.51574,25.46979 -35.62123,48.97528 -38.01219,52.23444 l -4.3472,5.92574 0.35405,7.48515 c 0.6595,13.9427 2.04755,18.04631 8.37187,24.75043 4.27829,4.5352 7.1894,6.63282 10.32344,7.43859 3.54255,0.9108 20.38716,0.26817 23.04862,-0.87931 z m 29.59536,-144.36664 4.01226,-2.33911 -0.29491,-50.83663 c -0.22001,-37.92536 -0.4918,-51.50993 -1.07016,-53.48763 l -0.77525,-2.65099 H 173.71782 138.627 l -0.77194,2.65099 c -0.98102,3.36902 -1.5894,74.71844 -0.77868,91.32114 0.59415,12.16759 0.93863,13.4148 4.31651,15.62807 2.60302,1.70556 5.67761,1.88136 34.45299,1.96993 l 27.07856,0.0833 z m 55.25348,-115.7518 c 13.16902,-6.51099 25.0418,-19.03482 28.77805,-30.35614 1.56552,-4.74373 3.44049,-14.84779 3.44509,-18.56533 0.001,-1.11497 0.0727,-2.03542 0.15845,-2.04542 0.0858,-0.01 3.7331,-0.27993 8.10519,-0.59982 4.37209,-0.3199 8.5094,-0.88142 9.19404,-1.24783 3.93944,-2.10832 6.43197,-15.96165 3.80009,-21.120579 -2.07491,-4.067162 -6.1936,-6.333939 -18.21973,-10.027473 l -7.25655,-2.228678 -8.57735,-7.485149 C 270.81168,66.981062 266.53668,63.856333 260.70105,61.122413 l -4.64659,-2.176868 H 240.4604 c -17.31086,0 -17.59726,0.05579 -24.46188,4.765375 -4.86863,3.340195 -14.39204,12.950568 -17.62847,17.789442 -6.29228,9.407734 -8.66129,18.491872 -9.16486,35.143198 -0.40615,13.42999 0.45879,20.14652 3.39595,26.3706 5.48631,11.62596 22.12161,26.57052 32.41145,29.1173 1.29184,0.31974 9.10082,0.52678 17.35329,0.46009 l 15.0045,-0.12125 z"
   id="path5176" /><path
   style="fill:#b72c2c;stroke:#b72c2c;stroke-width:2.33537;stroke-miterlimit:4;stroke-dasharray:none;stroke-opacity:1;fill-opacity:1"
   d="m 223.39312,490.24446 c -11.63849,-0.88842 -30.78817,-5.22231 -46.86837,-10.60708 -23.6345,-7.91449 -50.84927,-22.35331 -67.98023,-36.06698 C 102.00304,438.33382 72.029704,409.07636 63.932497,400.02388 52.690845,387.45599 39.24503,364.74978 30.621565,343.77106 24.800735,329.61045 18.094679,307.41081 15.210124,292.75322 13.899417,286.093 13.235059,231.80359 14.322685,220.23431 17.286597,188.7066 33.350737,146.61825 53.503741,117.57921 64.317521,101.99732 91.365114,73.602614 106.97525,61.444541 c 14.44562,-11.251088 36.12493,-23.785234 54.33227,-31.412828 12.55977,-5.261663 30.90017,-10.904411 46.09347,-14.181471 6.95829,-1.500842 9.08766,-1.646994 30.25248,-2.076432 39.29811,-0.797364 54.5156,0.251062 72.27794,4.979673 31.1833,8.301475 67.53716,26.011309 86.46958,42.123781 12.01244,10.223204 45.11265,44.090456 51.70198,52.900086 8.70512,11.63835 19.50383,31.81438 26.73996,49.96027 5.61033,14.06892 11.76323,35.23776 13.92039,47.89263 1.28859,7.55947 2.10741,40.59468 1.45671,58.77074 -0.79177,22.11629 -3.10321,34.2281 -10.89386,57.08318 -10.94875,32.11992 -25.1891,56.92946 -45.64387,79.52078 -9.205,10.16649 -32.2582,32.57784 -38.0317,36.97284 -29.71098,22.61705 -70.91984,39.85242 -108.71991,45.47151 -7.67398,1.14076 -51.77923,1.69272 -63.53757,0.79516 z m -44.77657,-59.18043 c 5.6652,-2.74247 15.14138,-14.00138 48.74484,-57.91502 l 18.71287,-24.45435 4.23874,4.51653 c 8.43986,8.99299 10.27072,12.7317 14.27729,29.15515 8.2801,33.94114 9.05133,35.98916 16.03269,42.57501 6.14127,5.79337 8.15812,6.39033 21.58989,6.39033 12.70918,0 13.20266,-0.18357 21.24249,-7.90213 7.13658,-6.8514 8.38622,-9.46235 8.38622,-17.52177 0,-13.80579 -2.46702,-37.98101 -5.30742,-52.00923 -1.91575,-9.4616 -4.12161,-16.44928 -6.47062,-20.49756 -2.43182,-4.19098 -12.07011,-15.6029 -28.44817,-33.68317 -7.45848,-8.23366 -13.80174,-15.6003 -14.09613,-16.3703 -0.29438,-0.77001 -0.72946,-13.40021 -0.96684,-28.06711 l -0.43161,-26.6671 4.62525,4.29312 c 4.82501,4.47854 42.01313,29.65882 48.92624,33.12822 3.54721,1.7802 4.17096,1.88155 12.81457,2.08214 5.25478,0.12195 10.13838,-0.0726 11.58204,-0.4613 2.92077,-0.78648 9.2432,-6.24437 12.25158,-10.57627 2.01046,-2.89497 2.01129,-2.89949 2.22315,-12.03595 0.18715,-8.07132 0.066,-9.46973 -1.036,-11.96106 -2.56662,-5.80227 -9.21428,-11.50248 -28.06214,-24.06263 -14.82644,-9.88029 -23.0897,-14.96919 -29.18314,-17.97239 l -4.93066,-2.4301 -7.79703,0.40195 c -9.78823,0.50459 -12.25681,1.50476 -18.07554,7.32349 l -4.24713,4.24713 -0.26709,-3.2207 c -0.2149,-2.59144 -0.82365,-3.99787 -3.11565,-7.1983 -3.26373,-4.55732 -10.13037,-11.34959 -14.15106,-13.99782 l -2.74262,-1.80642 1.88946,-0.38644 c 1.03921,-0.21254 4.09789,-1.57729 6.79707,-3.03279 11.86764,-6.39943 21.48894,-15.8282 26.72015,-26.18546 2.05421,-4.0671 4.51889,-13.66612 5.07315,-19.75804 l 0.40278,-4.427 7.87557,-0.74398 c 5.68697,-0.53723 8.30892,-1.05625 9.43497,-1.86768 3.84343,-2.76954 6.3149,-15.76166 4.10106,-21.558531 -1.87486,-4.909229 -5.49561,-7.155622 -18.13569,-11.251769 l -8.19737,-2.656442 -9.44349,-8.11271 C 271.09019,65.482907 267.71628,63.067353 260.78476,59.587995 l -4.62614,-2.322141 -15.95802,0.269512 c -17.34544,0.292945 -17.96398,0.40003 -23.75506,4.112602 -5.64814,3.620943 -17.44025,15.874611 -20.80979,21.624309 -5.84762,9.978258 -7.54037,18.290063 -7.55849,37.113863 -0.0149,15.51331 0.55935,18.61084 4.84465,26.13078 3.04716,5.34724 11.72891,14.81191 17.80193,19.40733 2.28926,1.73227 6.1897,4.16322 8.66764,5.40212 4.06563,2.0327 5.16145,2.29063 11.22772,2.6427 5.74649,0.33352 6.33006,0.45905 4.01985,0.86477 -4.28591,0.75269 -8.51464,3.25949 -13.52174,8.01575 -5.22583,4.96403 -7.59177,9.06652 -8.24526,14.29711 -0.37775,3.02353 -0.4699,3.18918 -0.84645,1.52162 -0.23241,-1.02921 -0.45576,-5.46618 -0.49636,-9.85993 -0.0406,-4.39375 -0.38781,-9.2357 -0.7716,-10.7599 l -0.69782,-2.77126 h -36.37183 -36.37182 l -0.79571,3.58663 c -0.60519,2.72788 -0.80246,14.93714 -0.82392,50.99258 -0.0307,51.55965 0.0495,52.93259 3.27149,56.00614 3.34452,3.19045 3.43346,3.19918 34.92328,3.43209 l 29.49032,0.21812 2.88424,-1.61203 c 1.58633,-0.88663 2.98685,-1.50943 3.11225,-1.38402 0.12541,0.12541 -16.83107,23.68356 -37.68107,52.35145 l -37.90909,52.12343 0.45291,8.53937 c 0.73045,13.7721 2.28383,18.13256 8.99332,25.24497 4.17045,4.4209 6.98921,6.53234 10.06417,7.53872 0.93863,0.30719 6.39445,0.4539 12.12404,0.32603 9.0995,-0.20308 10.76875,-0.40256 13.19415,-1.57668 z"
   id="path5215" /></svg>
